<svg width="87" height="30" viewBox="0 0 87 30" fill="none" xmlns="http://www.w3.org/2000/svg">
<path id="Vector" d="M14.6207 6.04242C14.6799 6.01391 14.7453 6.00087 14.8109 6.00452C14.8765 6.00816 14.9401 6.02838 14.9958 6.06327C14.9376 6.03337 14.8883 5.98877 14.8526 5.93389C14.817 5.879 14.7963 5.81574 14.7926 5.75038C14.7965 5.68506 14.8172 5.62188 14.8529 5.56702C14.8885 5.51216 14.9378 5.46752 14.9958 5.43748C15.0539 5.46752 15.1031 5.51216 15.1388 5.56702C15.1744 5.62188 15.1951 5.68506 15.199 5.75038C15.1953 5.81552 15.1748 5.87859 15.1395 5.93343C15.1042 5.98827 15.0553 6.03301 14.9976 6.06327C15.0523 6.02836 15.115 6.00812 15.1798 6.00446C15.2446 6.00081 15.3092 6.01388 15.3674 6.04242C15.4231 6.07837 15.4683 6.12824 15.4988 6.18708C15.5293 6.24592 15.5438 6.3117 15.5411 6.37791C15.4853 6.41269 15.4217 6.4327 15.356 6.43604C15.2904 6.43939 15.225 6.42597 15.166 6.39704C15.1103 6.36162 15.0649 6.31211 15.0344 6.25351C15.0039 6.19491 14.9894 6.12928 14.9923 6.06327C14.9946 6.12917 14.9798 6.19454 14.9494 6.25302C14.9189 6.3115 14.8739 6.36111 14.8187 6.39704C14.76 6.42598 14.6949 6.43941 14.6295 6.43606C14.5642 6.43272 14.5007 6.41269 14.4453 6.37791C14.4429 6.31175 14.4576 6.2461 14.4881 6.18731C14.5185 6.12853 14.5636 6.07862 14.6189 6.04242M15.9996 6.11021C15.9384 6.13384 15.8844 6.17305 15.843 6.22396C15.8016 6.27488 15.7741 6.33573 15.7634 6.40051C15.8102 6.44637 15.868 6.47942 15.9313 6.49647C15.9946 6.51351 16.0611 6.51399 16.1246 6.49786C16.1857 6.47453 16.2396 6.43564 16.281 6.38502C16.3225 6.3344 16.35 6.27383 16.3608 6.2093C16.3441 6.27227 16.3443 6.33855 16.3614 6.40142C16.3785 6.4643 16.4118 6.52155 16.4581 6.56739C16.5091 6.60883 16.5702 6.6361 16.6351 6.64647C16.7 6.65684 16.7665 6.64995 16.8279 6.62649C16.8441 6.56293 16.8436 6.4963 16.8266 6.43298C16.8096 6.36966 16.7765 6.31179 16.7307 6.26493C16.6789 6.22484 16.6177 6.19869 16.553 6.18895C16.4882 6.17921 16.4221 6.18622 16.3608 6.2093C16.4262 6.19216 16.4858 6.1578 16.5334 6.10981C16.5811 6.06182 16.615 6.00194 16.6317 5.93638C16.6416 5.87179 16.6344 5.80575 16.611 5.74478C16.5875 5.6838 16.5486 5.63001 16.498 5.58872C16.4349 5.60591 16.3773 5.63911 16.3308 5.68509C16.2842 5.73107 16.2503 5.78828 16.2323 5.8512C16.2229 5.91577 16.2304 5.98164 16.2538 6.04252C16.2772 6.1034 16.3158 6.15724 16.366 6.19887C16.3193 6.15346 16.2617 6.12081 16.1987 6.10407C16.1358 6.08733 16.0696 6.08706 16.0065 6.10326M17.6841 6.62476C17.7493 6.6199 17.8123 6.59873 17.8672 6.56319C17.9221 6.52766 17.9673 6.47889 17.9985 6.42137C18.0216 6.35994 18.0285 6.29357 18.0184 6.22869C18.0084 6.16382 17.9818 6.10264 17.9411 6.05111C17.8754 6.05556 17.8118 6.07653 17.7562 6.11208C17.7007 6.14763 17.655 6.19661 17.6233 6.2545C17.5986 6.3164 17.5903 6.38364 17.5991 6.44972C17.6079 6.5158 17.6336 6.57848 17.6737 6.63171C17.6377 6.57691 17.5884 6.5322 17.5303 6.50178C17.4723 6.47137 17.4075 6.45626 17.342 6.45788C17.2772 6.46833 17.2163 6.49546 17.1651 6.5366C17.114 6.57774 17.0744 6.63148 17.0502 6.69255C17.0862 6.74822 17.136 6.79354 17.1948 6.82403C17.2536 6.85451 17.3193 6.86911 17.3854 6.86638C17.4493 6.85474 17.5092 6.82713 17.5596 6.78611C17.61 6.74508 17.6493 6.69197 17.6737 6.63171M13.2227 6.2684C13.1769 6.31525 13.144 6.3732 13.1273 6.43657C13.1106 6.49995 13.1105 6.56658 13.1272 6.62997C13.1887 6.65291 13.2551 6.65952 13.3199 6.64916C13.3847 6.63881 13.4458 6.61184 13.4971 6.57087C13.5426 6.52456 13.5753 6.4672 13.5921 6.40444C13.6088 6.34167 13.609 6.27564 13.5926 6.21278C13.5314 6.18919 13.4652 6.18191 13.4003 6.19167C13.3355 6.20142 13.2743 6.22785 13.2227 6.2684ZM13.8271 6.50134C13.8908 6.51762 13.9577 6.51722 14.0213 6.50017C14.0848 6.48312 14.1429 6.45 14.19 6.40399C14.1793 6.33946 14.1521 6.27881 14.111 6.22794C14.0699 6.17707 14.0164 6.13771 13.9556 6.11369C13.893 6.09817 13.8275 6.09846 13.7651 6.11454C13.7026 6.13062 13.6452 6.16199 13.5978 6.20582C13.6485 6.16471 13.6872 6.11082 13.7101 6.04971C13.733 5.98859 13.7392 5.92246 13.7281 5.85815C13.71 5.79534 13.6764 5.73814 13.6302 5.69193C13.584 5.64571 13.5269 5.612 13.4641 5.59394C13.4137 5.63548 13.3749 5.68924 13.3512 5.7501C13.3274 5.81096 13.3197 5.87689 13.3286 5.9416C13.3465 6.00432 13.3801 6.0614 13.4264 6.10736C13.4726 6.15332 13.5298 6.18662 13.5926 6.20408C13.6032 6.26867 13.6303 6.3294 13.6714 6.3803C13.7125 6.4312 13.7662 6.47051 13.8271 6.49439M12.3353 6.2545C12.3041 6.19664 12.2587 6.14763 12.2034 6.11207C12.1482 6.07651 12.0848 6.05553 12.0192 6.05111C11.9787 6.10271 11.9521 6.16379 11.9418 6.22858C11.9314 6.29336 11.9378 6.35972 11.9602 6.42137C11.9917 6.48248 12.0388 6.53413 12.0968 6.57107C12.1548 6.60802 12.2215 6.62894 12.2901 6.63171C12.3143 6.69246 12.3537 6.74597 12.4044 6.78707C12.4552 6.82817 12.5157 6.85548 12.5801 6.86638C12.646 6.86898 12.7115 6.85431 12.77 6.82382C12.8284 6.79333 12.878 6.74808 12.9136 6.69255C12.8893 6.63189 12.8499 6.57847 12.7991 6.53739C12.7484 6.49631 12.6879 6.46893 12.6236 6.45788C12.5578 6.45596 12.4926 6.47093 12.4343 6.50136C12.3759 6.53179 12.3263 6.57666 12.2901 6.63171C12.3309 6.58026 12.3578 6.51917 12.3681 6.45432C12.3785 6.38947 12.3719 6.32304 12.3492 6.26145M14.9976 3.4471C15.0865 3.4471 15.1717 3.41176 15.2346 3.34884C15.2974 3.28592 15.3327 3.20058 15.3327 3.1116C15.3323 3.02293 15.2967 2.93803 15.2339 2.87549C15.1711 2.81295 15.0862 2.77785 14.9976 2.77785C14.9088 2.77784 14.8236 2.81289 14.7606 2.87539C14.6975 2.93788 14.6615 3.02277 14.6606 3.1116C14.6611 3.20074 14.6968 3.28608 14.7599 3.34895C14.8231 3.41182 14.9085 3.4471 14.9976 3.4471ZM14.9976 7.2071C15.7383 7.21164 16.4696 7.37462 17.1423 7.68513L17.4149 7.26967C16.6603 6.91289 15.8356 6.72938 15.001 6.73254C14.1642 6.72922 13.3372 6.91271 12.5801 7.26967L12.8545 7.68513C13.5267 7.37481 14.2574 7.21183 14.9976 7.2071ZM11.7883 5.96593L12.1356 5.61826C12.0741 5.57131 12.0237 5.51122 11.9883 5.44236C11.9528 5.37351 11.9331 5.29761 11.9306 5.22019C11.9306 4.89339 12.278 4.62569 12.7208 4.62569C12.8214 4.62548 12.9215 4.64012 13.0178 4.66915C13.0024 4.73525 12.9949 4.80292 12.9952 4.87079C12.9967 5.08365 13.0681 5.29011 13.1984 5.45834L13.5457 5.11068C13.5055 5.03897 13.484 4.95825 13.4832 4.87601C13.4832 4.5492 13.8305 4.28149 14.2734 4.28149C14.4402 4.27981 14.6047 4.32111 14.7509 4.40144V5.09677H15.2442V4.37189C15.3859 4.30066 15.5423 4.26374 15.7009 4.26411C16.1368 4.26411 16.4928 4.53181 16.4928 4.85862C16.4914 4.941 16.4693 5.02172 16.4285 5.0933L16.7759 5.44096C16.9057 5.27257 16.9764 5.06609 16.9773 4.85341C16.9777 4.78554 16.9701 4.71786 16.9548 4.65176C17.0511 4.62273 17.1511 4.60809 17.2517 4.6083C17.6876 4.6083 18.0419 4.87601 18.0419 5.20281C18.0394 5.28023 18.0197 5.35613 17.9843 5.42498C17.9488 5.49384 17.8985 5.55393 17.8369 5.60089L18.1843 5.94855C18.2918 5.85577 18.3785 5.74113 18.4384 5.61225C18.4982 5.48337 18.53 5.3432 18.5316 5.20107C18.5316 4.59961 17.9568 4.11462 17.2448 4.11462C17.0667 4.11288 16.89 4.14472 16.7238 4.20849C16.5915 4.06468 16.4301 3.95064 16.2505 3.87392C16.0709 3.79721 15.877 3.75956 15.6818 3.76348C15.4335 3.7592 15.1882 3.81907 14.9698 3.93731C14.7498 3.81973 14.5036 3.75992 14.2543 3.76348C14.059 3.75911 13.865 3.79655 13.6853 3.8733C13.5056 3.95004 13.3443 4.06432 13.2123 4.20849C13.046 4.145 12.8693 4.11316 12.6913 4.11462C11.9828 4.11462 11.4062 4.59961 11.4062 5.20107C11.4078 5.3432 11.4396 5.48337 11.4995 5.61225C11.5593 5.74113 11.6459 5.85577 11.7535 5.94855M15.0774 17.9882H16.6508V16.0343H15.0774V17.9882ZM14.8482 13.8562H13.2852V15.8101H14.8482V13.8562ZM14.8482 8.81505L14.9645 8.70032L15.0774 8.8133V15.8048H15.8641V9.59903L16.6508 10.383V15.8048H17.4375V11.1687L18.2242 11.9527V15.8048H19.0109V12.7384L19.7993 13.5242V15.8048H20.586V14.3081L21.3727 15.0939V15.8048H22.0847L22.1994 15.9144L22.083 16.0291H17.4375V17.9847H20.1275L19.3409 18.7687H17.4306V20.6652L16.6439 21.4561V18.7687H15.0705V23.0206L14.9576 23.1336L14.8412 23.0206V16.0291H14.0545V22.2366L13.2696 21.4544V16.0291H12.4812V20.6669L11.6945 19.883V16.0291H10.9078V19.0972L10.1194 18.3132V16.0291H9.33439V17.5258L8.54769 16.7418V16.0291H7.8357L7.72279 15.9178L7.8357 15.8048H12.4812V13.851H9.79458L10.5813 13.0652H12.4812V11.1653L13.2696 10.3795V13.0652H14.8326L14.8482 8.81505ZM14.9628 24.1749C14.8777 24.1753 14.7963 24.2094 14.7361 24.2696C14.676 24.3298 14.642 24.4113 14.6415 24.4965C14.6425 24.5812 14.6767 24.6621 14.7369 24.7216C14.797 24.7812 14.8782 24.8146 14.9628 24.8146C15.0048 24.8148 15.0464 24.8068 15.0852 24.7909C15.1241 24.775 15.1595 24.7517 15.1893 24.7221C15.2191 24.6926 15.2429 24.6575 15.2591 24.6187C15.2754 24.58 15.2839 24.5385 15.2841 24.4965C15.2841 24.4112 15.2503 24.3294 15.19 24.2691C15.1298 24.2088 15.048 24.1749 14.9628 24.1749ZM6.3856 15.6188C6.34349 15.6186 6.30174 15.6267 6.26277 15.6427C6.2238 15.6587 6.18837 15.6822 6.15851 15.7119C6.12865 15.7416 6.10498 15.777 6.08881 15.8159C6.07264 15.8548 6.0643 15.8965 6.0643 15.9387C6.0643 15.9808 6.07264 16.0226 6.08881 16.0615C6.10498 16.1004 6.12865 16.1358 6.15851 16.1655C6.18837 16.1952 6.2238 16.2187 6.26277 16.2347C6.30174 16.2507 6.34349 16.2588 6.3856 16.2585C6.42779 16.2588 6.46961 16.2507 6.50868 16.2347C6.54774 16.2188 6.58328 16.1953 6.61327 16.1656C6.64327 16.1359 6.66713 16.1006 6.68349 16.0616C6.69984 16.0227 6.7084 15.9809 6.70863 15.9387C6.7084 15.8965 6.69984 15.8547 6.68349 15.8158C6.66713 15.7768 6.64327 15.7415 6.61327 15.7118C6.58328 15.6821 6.54774 15.6586 6.50868 15.6427C6.46961 15.6267 6.42779 15.6186 6.3856 15.6188ZM23.5782 15.6188C23.4935 15.6188 23.4122 15.6525 23.3523 15.7125C23.2924 15.7725 23.2587 15.8539 23.2587 15.9387C23.2587 16.0235 23.2924 16.1049 23.3523 16.1649C23.4122 16.2248 23.4935 16.2585 23.5782 16.2585C23.6204 16.2588 23.6623 16.2507 23.7013 16.2347C23.7404 16.2188 23.7759 16.1953 23.8059 16.1656C23.8359 16.1359 23.8598 16.1006 23.8761 16.0616C23.8925 16.0227 23.901 15.9809 23.9013 15.9387C23.901 15.8965 23.8925 15.8547 23.8761 15.8158C23.8598 15.7768 23.8359 15.7415 23.8059 15.7118C23.7759 15.6821 23.7404 15.6586 23.7013 15.6427C23.6623 15.6267 23.6204 15.6186 23.5782 15.6188ZM22.7516 15.9352L14.9871 8.1962L7.21919 15.9422L14.9871 23.6899L22.7516 15.9352ZM14.9854 8.078C14.9854 8.078 16.5484 8.94716 19.228 11.6207C21.9475 14.3342 22.8645 15.9352 22.8645 15.9352C22.8645 15.9352 21.9962 17.4997 19.3096 20.1698C16.59 22.8798 14.9854 23.7942 14.9854 23.7942C14.9854 23.7942 13.4224 22.925 10.7393 20.248C8.02325 17.5362 7.10628 15.9352 7.10628 15.9352C7.10628 15.9352 7.97463 14.3794 10.6612 11.6989C13.3808 8.98888 14.9854 8.078 14.9854 8.078ZM86.9983 15C86.9937 18.9768 85.4134 22.7895 82.6041 25.6015C79.7948 28.4136 75.9858 29.9954 72.0129 30H14.9854C11.0124 29.9954 7.2035 28.4136 4.39419 25.6015C1.58488 22.7895 0.00459621 18.9768 0 15C0.00459621 11.0232 1.58488 7.21054 4.39419 4.39849C7.2035 1.58644 11.0124 0.00460069 14.9854 0H72.0129C75.9861 0.00414067 79.7955 1.58577 82.6052 4.39787C85.4149 7.20997 86.9954 11.0229 87 15H86.9983ZM14.9854 29.5654C18.8432 29.5608 22.5417 28.0248 25.2696 25.2942C27.9975 22.5637 29.532 18.8616 29.5366 15C29.532 11.1384 27.9975 7.43633 25.2696 4.70578C22.5417 1.97523 18.8432 0.439181 14.9854 0.434581C11.1276 0.439181 7.42909 1.97523 4.7012 4.70578C1.97331 7.43633 0.438754 11.1384 0.434158 15C0.438755 18.8619 1.97353 22.5642 4.70179 25.2948C7.43006 28.0254 11.129 29.5613 14.9871 29.5654H14.9854ZM86.5641 15C86.5595 11.1384 85.025 7.43633 82.2971 4.70578C79.5692 1.97523 75.8707 0.439181 72.0129 0.434581H18.5611C21.8144 1.2391 24.705 3.11019 26.7727 5.7498C28.8404 8.38941 29.9662 11.6457 29.9708 15C29.9662 18.3543 28.8404 21.6106 26.7727 24.2502C24.705 26.8898 21.8144 28.7609 18.5611 29.5654H72.0129C75.871 29.5613 79.5699 28.0254 82.2982 25.2948C85.0265 22.5642 86.5612 18.8619 86.5658 15H86.5641ZM38.3639 11.8241L36.8357 7.4661H35.9674L34.4391 11.8241H35.238L35.5193 10.988H37.256L37.539 11.8241H38.3639ZM37.0076 10.2752H35.7676L36.3876 8.43783L37.0076 10.2752ZM39.5726 12.2656V8.6273H38.7981V12.1196C38.8022 12.1681 38.7954 12.217 38.778 12.2625C38.7607 12.308 38.7333 12.349 38.6979 12.3825C38.6625 12.4159 38.62 12.4409 38.5736 12.4556C38.5272 12.4703 38.4781 12.4743 38.4299 12.4673C38.3049 12.4622 38.1802 12.45 38.0566 12.4308V13.0826C38.1707 13.1129 38.2867 13.1355 38.4039 13.1504C38.4938 13.1603 38.5843 13.1643 38.6748 13.1626C39.2496 13.1574 39.5744 12.8132 39.5744 12.2656H39.5726ZM39.5917 8.1736V7.38093H38.7686V8.1736H39.5917ZM43.0476 11.8241V8.6273H42.28V10.3187C42.2906 10.4478 42.2755 10.5778 42.2356 10.701C42.1956 10.8243 42.1317 10.9383 42.0473 11.0366C41.9962 11.0891 41.9348 11.1304 41.867 11.1579C41.7991 11.1855 41.7263 11.1986 41.6531 11.1966C41.2485 11.1966 41.1008 10.9636 41.1008 10.5881V8.6273H40.3333V10.7602C40.3333 11.4434 40.757 11.904 41.4395 11.904C41.6232 11.9148 41.8061 11.8737 41.9676 11.7855C42.1291 11.6973 42.2626 11.5655 42.353 11.4052L42.4085 11.8241H43.0476ZM46.5712 11.8241V9.69116C46.5712 9.02712 46.1718 8.54735 45.491 8.54735C45.305 8.53896 45.12 8.58006 44.955 8.66647C44.79 8.75289 44.6508 8.88152 44.5515 9.03928L44.496 8.6273H43.8517V11.8241H44.6193V10.5203C44.5979 10.2318 44.6333 9.94177 44.7235 9.66683C44.7631 9.55074 44.8372 9.44957 44.9359 9.37686C45.0346 9.30415 45.1532 9.26339 45.2757 9.26006C45.6803 9.26006 45.7967 9.48778 45.7967 9.86326V11.8241H46.5712ZM49.131 11.7806V11.1357C48.9663 11.1562 48.8004 11.1661 48.6344 11.1653C48.3878 11.1653 48.2766 11.061 48.2766 10.8176V9.25311H49.0824V8.62035H48.2766V7.61908L47.5108 7.8103V8.62035H46.9272V9.25311H47.5108V10.8767C47.5108 11.4903 47.8286 11.8606 48.4746 11.8606C48.6965 11.8621 48.9177 11.8352 49.1328 11.7806H49.131ZM52.4098 11.7806V11.2139C52.3773 11.2214 52.3441 11.2254 52.3108 11.2261C52.1823 11.2261 52.1371 11.1722 52.1371 11.0245V9.83718C52.1457 9.6184 52.1145 9.39988 52.0451 9.19226C51.861 8.71248 51.3939 8.54039 50.8468 8.54039C50.1348 8.54039 49.5634 8.86024 49.52 9.58338H50.2633C50.2824 9.28787 50.4908 9.12794 50.8468 9.12794C51.2827 9.12794 51.3869 9.33133 51.3869 9.63206V9.82849L50.4474 9.89629C49.8396 9.93975 49.3672 10.2891 49.3672 10.8993C49.3672 11.4208 49.7597 11.9006 50.5221 11.9006C50.7109 11.9089 50.8988 11.8693 51.0682 11.7855C51.2377 11.7016 51.3832 11.5761 51.4911 11.4208C51.5047 11.5514 51.5689 11.6714 51.6698 11.7552C51.7708 11.839 51.9005 11.88 52.0312 11.8693C52.161 11.8728 52.2897 11.8448 52.4063 11.7876L52.4098 11.7806ZM51.3835 10.5447C51.3835 11.0175 51.0465 11.2765 50.5672 11.2765C50.5109 11.281 50.4543 11.2741 50.4008 11.2563C50.3472 11.2385 50.2977 11.2102 50.2553 11.1729C50.2129 11.1356 50.1784 11.0902 50.1538 11.0393C50.1292 10.9884 50.1151 10.9331 50.1122 10.8767C50.1203 10.7607 50.1728 10.6522 50.2589 10.5741C50.345 10.496 50.458 10.4543 50.5742 10.4578L51.3835 10.3969V10.5447ZM57.4495 11.8171V9.65987C57.4495 8.99583 57.0935 8.54039 56.4075 8.54039C56.2147 8.5317 56.0232 8.57564 55.8534 8.66749C55.6837 8.75935 55.542 8.89567 55.4437 9.06188C55.3602 8.89414 55.2288 8.75501 55.0661 8.66216C54.9035 8.56931 54.717 8.52692 54.5302 8.54039C54.3475 8.53584 54.1668 8.58016 54.0069 8.66877C53.8469 8.75738 53.7134 8.88708 53.6202 9.04451L53.5594 8.62035H52.9273V11.8171H53.6897V10.0788C53.6897 9.679 53.8859 9.20965 54.3218 9.20965C54.7091 9.20965 54.8133 9.43737 54.8133 9.83023V11.8154H55.5739V10.0771C55.5739 9.67726 55.765 9.20791 56.2009 9.20791C56.5864 9.20791 56.6923 9.43563 56.6923 9.82849V11.8137L57.4495 11.8171ZM60.9054 10.2526C60.937 9.86158 60.84 9.4709 60.6293 9.14011C60.5008 8.95064 60.3262 8.79699 60.1221 8.6936C59.9179 8.59022 59.6909 8.54049 59.4622 8.54909C59.2736 8.54405 59.086 8.57751 58.9107 8.64744C58.7355 8.71737 58.5763 8.82231 58.4429 8.95585C58.1284 9.3051 57.9632 9.76377 57.9827 10.2335C57.9737 10.469 58.0126 10.7038 58.0971 10.9238C58.1816 11.1437 58.3098 11.3441 58.4741 11.5129C58.6076 11.642 58.7654 11.7432 58.9383 11.8106C59.1112 11.8781 59.2958 11.9104 59.4814 11.9058C59.6822 11.9144 59.8824 11.8787 60.0679 11.8012C60.2534 11.7237 60.4195 11.6063 60.5546 11.4573C60.6946 11.2872 60.788 11.0835 60.8255 10.8663H60.0892C60.0629 10.9689 60.0095 11.0626 59.9346 11.1374C59.8723 11.1944 59.7985 11.2375 59.7183 11.2639C59.6381 11.2902 59.5532 11.2993 59.4692 11.2904C59.2915 11.2899 59.1212 11.2193 58.9951 11.094C58.9159 11.0106 58.8544 10.912 58.8144 10.8041C58.7744 10.6962 58.7567 10.5814 58.7624 10.4665H60.8984C60.9002 10.3987 60.9158 10.2509 60.9158 10.2509L60.9054 10.2526ZM60.1378 9.90498H58.7485C58.7467 9.72353 58.8081 9.54712 58.9222 9.40608C58.986 9.32629 59.0677 9.26256 59.1606 9.22C59.2534 9.17744 59.355 9.15723 59.4571 9.16097C59.5462 9.156 59.6354 9.16983 59.7189 9.20157C59.8023 9.23332 59.8782 9.28226 59.9415 9.34523C60.075 9.50123 60.1456 9.70143 60.1395 9.90672L60.1378 9.90498ZM64.1894 11.8171V9.69116C64.1894 9.02712 63.7899 8.54735 63.1092 8.54735C62.9231 8.53914 62.7382 8.58031 62.5732 8.66671C62.4082 8.7531 62.269 8.88164 62.1697 9.03928L62.1141 8.6273H61.4698V11.8241H62.2374V10.5203C62.216 10.2318 62.2514 9.94177 62.3416 9.66683C62.3814 9.55088 62.4556 9.44983 62.5543 9.37716C62.653 9.30449 62.7714 9.26364 62.8938 9.26006C63.2985 9.26006 63.4148 9.48778 63.4148 9.86326V11.8241L64.1894 11.8171ZM66.7492 11.7737V11.1288C66.5844 11.1493 66.4185 11.1592 66.2525 11.1583C66.0059 11.1583 65.9052 11.054 65.9052 10.8106V9.24615H66.7092V8.6134H65.9052V7.61213L65.1376 7.80334V8.6134H64.554V9.24615H65.1376V10.8697C65.1376 11.4834 65.4571 11.8536 66.1014 11.8536C66.3201 11.8569 66.5384 11.8323 66.7509 11.7806L66.7492 11.7737ZM71.1081 11.8171V7.37919H70.3405V8.84285C70.2051 8.66902 69.9116 8.54039 69.5052 8.54039C69.2229 8.53235 68.9469 8.62405 68.7254 8.7994C68.3451 9.11229 68.1541 9.59903 68.1541 10.2248C68.1541 10.8506 68.3399 11.3061 68.7202 11.6155C68.9408 11.7935 69.2166 11.8888 69.5 11.8849C69.6728 11.8943 69.8452 11.8604 70.0017 11.7863C70.1581 11.7123 70.2937 11.6004 70.3961 11.4608L70.4447 11.8084L71.1081 11.8171ZM70.377 10.2127C70.377 10.6733 70.2554 11.2452 69.6528 11.2452C69.5522 11.2478 69.4524 11.2262 69.3618 11.1824C69.2712 11.1385 69.1923 11.0737 69.1318 10.9932C68.9827 10.7613 68.9115 10.4879 68.9286 10.2127C68.9115 9.93964 68.9828 9.6684 69.1318 9.43911C69.192 9.35829 69.2709 9.29318 69.3615 9.24931C69.4522 9.20543 69.5521 9.18408 69.6528 9.18705C70.2572 9.194 70.3787 9.7607 70.3787 10.2196L70.377 10.2127ZM74.491 10.244C74.5227 9.85289 74.4257 9.46221 74.215 9.13142C74.0864 8.94195 73.9119 8.7883 73.7077 8.68491C73.5036 8.58153 73.2766 8.53179 73.0479 8.54039C72.8593 8.53535 72.6716 8.56882 72.4964 8.63875C72.3211 8.70868 72.1619 8.81362 72.0285 8.94716C71.7134 9.29602 71.5481 9.75496 71.5683 10.2248C71.5593 10.4603 71.5983 10.6951 71.6828 10.9151C71.7672 11.135 71.8955 11.3355 72.0598 11.5042C72.1933 11.6333 72.3511 11.7345 72.524 11.8019C72.6969 11.8694 72.8815 11.9017 73.067 11.8971C73.2678 11.9057 73.4681 11.87 73.6535 11.7925C73.839 11.715 74.0052 11.5976 74.1402 11.4486C74.2803 11.2785 74.3737 11.0748 74.4112 10.8576H73.6748C73.6485 10.9602 73.5952 11.0539 73.5203 11.1288C73.4579 11.1857 73.3842 11.2288 73.3039 11.2552C73.2237 11.2816 73.1388 11.2906 73.0548 11.2817C72.8772 11.2812 72.7068 11.2106 72.5807 11.0853C72.5012 11.0021 72.4396 10.9036 72.3995 10.7956C72.3595 10.6877 72.342 10.5727 72.3481 10.4578H74.4841C74.4858 10.3987 74.4928 10.2509 74.4928 10.2509L74.491 10.244ZM73.7235 9.89629H72.3342C72.3332 9.71498 72.3945 9.53884 72.5078 9.39738C72.5713 9.31762 72.6527 9.2539 72.7453 9.21134C72.8379 9.16877 72.9392 9.14854 73.041 9.15228C73.1304 9.14717 73.2199 9.16093 73.3037 9.19267C73.3875 9.22442 73.4636 9.27343 73.5272 9.33654C73.6613 9.49563 73.7318 9.69872 73.7252 9.90672L73.7235 9.89629ZM39.3277 18.8C39.3313 18.5042 39.2486 18.2137 39.0897 17.9643C38.9309 17.7148 38.7028 17.5171 38.4334 17.3954C38.9544 17.159 39.1975 16.5888 39.1975 16.0795C39.1984 15.812 39.133 15.5485 39.0073 15.3125C38.8815 15.0765 38.6992 14.8753 38.4768 14.7271C38.0408 14.4753 37.5416 14.3546 37.0389 14.3794H34.5659V20.613H37.0389C37.6363 20.613 38.2146 20.5609 38.6974 20.1906C38.9051 20.0255 39.0706 19.8133 39.1802 19.5715C39.2898 19.3296 39.3404 19.0652 39.3277 18.8ZM38.0479 16.149C38.0479 16.7366 37.6189 16.9226 37.1101 16.9226H35.6878V15.3581H37.0771C37.5911 15.3511 38.0479 15.5458 38.0479 16.1421V16.149ZM38.1799 18.7739C38.1799 19.4066 37.6085 19.5996 37.0823 19.5996H35.693V17.87H37.124C37.7144 17.863 38.1799 18.1046 38.1799 18.767V18.7739ZM44.3188 20.5574V19.7491C44.2727 19.7598 44.2255 19.7656 44.1782 19.7665C43.9941 19.7665 43.9229 19.6883 43.9229 19.4762V17.7831C43.9364 17.47 43.8922 17.1571 43.7926 16.86C43.5286 16.1751 42.8618 15.93 42.0821 15.93C41.0644 15.93 40.2481 16.3855 40.1874 17.4128H41.2485C41.2745 16.9921 41.5732 16.7644 42.0821 16.7644C42.7038 16.7644 42.8531 17.053 42.8531 17.4841V17.757L41.5107 17.8543C40.6424 17.9152 39.9685 18.4158 39.9685 19.285C39.9685 20.0307 40.5295 20.7156 41.6166 20.7156C42.2662 20.7156 42.7924 20.401 43.006 20.0307C43.0249 20.2178 43.1165 20.3899 43.2611 20.5099C43.4057 20.6299 43.5916 20.6882 43.7787 20.6722C43.9661 20.6775 44.1518 20.6357 44.3188 20.5505V20.5574ZM42.8531 18.7913C42.8531 19.4675 42.3703 19.8343 41.6861 19.8343C41.6059 19.8409 41.5251 19.8313 41.4487 19.806C41.3722 19.7807 41.3017 19.7402 41.2412 19.687C41.1808 19.6337 41.1316 19.5689 41.0968 19.4962C41.0619 19.4236 41.042 19.3446 41.0383 19.2641C41.0383 18.8956 41.3631 18.6939 41.6965 18.6679L42.8531 18.5792V18.7913ZM47.931 17.0617V16.0082C47.8161 15.9906 47.7 15.9819 47.5837 15.9822C47.0488 15.9822 46.5053 16.2012 46.2951 16.7279L46.1979 16.043H45.2687V20.6096H46.3733V18.3098C46.3733 17.571 46.7779 17.0182 47.549 17.0182C47.6775 17.0194 47.8055 17.034 47.931 17.0617ZM52.2639 18.9947H51.1907C51.1829 19.1436 51.1381 19.2881 51.0604 19.4153C50.9837 19.5277 50.8797 19.6185 50.7582 19.6794C50.6366 19.7402 50.5015 19.769 50.3658 19.763C50.2405 19.764 50.1165 19.7386 50.0016 19.6886C49.8868 19.6386 49.7836 19.5651 49.6989 19.4727C49.4349 19.1841 49.3915 18.753 49.3915 18.3237C49.3915 17.8943 49.4349 17.4545 49.6989 17.1642C49.7842 17.0732 49.8876 17.0011 50.0025 16.9526C50.1173 16.9041 50.2411 16.8802 50.3658 16.8826C50.5015 16.8766 50.6366 16.9054 50.7582 16.9662C50.8797 17.0271 50.9837 17.118 51.0604 17.2303C51.1384 17.358 51.1831 17.5032 51.1907 17.6527H52.2709C52.2561 17.2946 52.1352 16.9491 51.9235 16.6601C51.7331 16.431 51.494 16.2475 51.2235 16.123C50.9531 15.9985 50.6582 15.9361 50.3606 15.9404C50.0595 15.9384 49.7616 16.0016 49.4872 16.1259C49.2129 16.2501 48.9688 16.4324 48.7716 16.6601C48.4242 17.0895 48.2714 17.6614 48.2714 18.3289C48.2433 18.9254 48.4198 19.5136 48.7716 19.9959C48.9688 20.2237 49.2129 20.4059 49.4872 20.5302C49.7616 20.6544 50.0595 20.7177 50.3606 20.7156C50.6582 20.72 50.9531 20.6576 51.2235 20.5331C51.494 20.4085 51.7331 20.225 51.9235 19.9959C52.1363 19.7021 52.2549 19.3505 52.2639 18.9877V18.9947ZM57.0952 18.3619C57.1407 17.8034 57.0022 17.2454 56.701 16.7731C56.5175 16.5024 56.2681 16.283 55.9765 16.1355C55.6848 15.988 55.3604 15.9173 55.0338 15.93C54.7647 15.9223 54.4968 15.9696 54.2465 16.0691C53.9963 16.1687 53.769 16.3183 53.5785 16.5089C53.1392 16.9574 52.9204 17.6058 52.9204 18.3358C52.906 18.6714 52.9602 19.0063 53.0796 19.3202C53.1991 19.634 53.3813 19.9202 53.615 20.1611C53.8053 20.3458 54.0305 20.4906 54.2774 20.587C54.5243 20.6835 54.788 20.7295 55.0529 20.7226C55.3401 20.7354 55.6265 20.6848 55.8918 20.5742C56.1572 20.4636 56.3949 20.2959 56.5881 20.0829C56.7876 19.8399 56.921 19.5495 56.9754 19.2398H55.9213C55.8855 19.3863 55.8098 19.5199 55.7024 19.6257C55.6132 19.7075 55.5075 19.7693 55.3926 19.8071C55.2776 19.8448 55.1559 19.8577 55.0356 19.8447C54.7824 19.8439 54.5398 19.7433 54.36 19.5648C54.2465 19.4462 54.1584 19.3056 54.101 19.1517C54.0437 18.9977 54.0184 18.8337 54.0266 18.6696H57.0952C57.0952 18.5653 57.0952 18.355 57.0952 18.355V18.3619ZM55.9994 17.87H54.0249C54.0199 17.6126 54.1039 17.3614 54.2628 17.159C54.354 17.0457 54.4705 16.9552 54.6028 16.8948C54.7352 16.8345 54.8798 16.8059 55.0252 16.8113C55.1529 16.8041 55.2806 16.8237 55.4003 16.8689C55.5199 16.9141 55.6288 16.9839 55.7198 17.0738C55.9055 17.2943 56.0049 17.5747 55.9994 17.863V17.87ZM59.82 20.6009V19.6691C59.7575 19.6691 59.7314 19.6796 59.6342 19.6796C59.2574 19.6796 59.1966 19.5057 59.1966 19.2398V14.2525H58.092V19.424C58.092 20.2932 58.5904 20.653 59.3372 20.653C59.5012 20.655 59.6647 20.6351 59.8235 20.5939L59.82 20.6009ZM64.6687 18.3272C64.6687 17.5536 64.4742 17.0703 64.1338 16.641C63.9342 16.4145 63.6881 16.2338 63.4124 16.1111C63.1367 15.9884 62.8378 15.9266 62.5361 15.93C62.2347 15.9267 61.936 15.9884 61.6606 16.1111C61.3852 16.2338 61.1394 16.4146 60.9401 16.641C60.5928 17.0703 60.4053 17.5536 60.4053 18.3272C60.4053 19.1007 60.598 19.5822 60.9401 20.0116C61.1389 20.2386 61.3845 20.4198 61.6601 20.5425C61.9356 20.6653 62.2345 20.7267 62.5361 20.7226C62.8379 20.7264 63.1369 20.6648 63.4127 20.5421C63.6885 20.4194 63.9345 20.2384 64.1338 20.0116C64.4776 19.5753 64.6721 19.092 64.6721 18.3202L64.6687 18.3272ZM63.5537 18.3272C63.5537 18.7565 63.493 19.1963 63.229 19.4762C63.1389 19.5691 63.0308 19.6427 62.9114 19.6926C62.792 19.7425 62.6637 19.7676 62.5344 19.7665C62.405 19.7674 62.2768 19.7422 62.1574 19.6923C62.0381 19.6424 61.93 19.5689 61.8397 19.4762C61.5775 19.1876 61.5149 18.7565 61.5149 18.3272C61.5149 17.8978 61.5775 17.458 61.8397 17.1764C61.93 17.0837 62.0381 17.0102 62.1574 16.9603C62.2768 16.9104 62.405 16.8851 62.5344 16.8861C62.6637 16.8849 62.792 16.9101 62.9114 16.96C63.0308 17.0099 63.1389 17.0835 63.229 17.1764C63.4965 17.4597 63.5572 17.8891 63.5572 18.3202L63.5537 18.3272ZM69.6059 20.6096V17.5623C69.6059 16.6149 69.0345 15.93 68.062 15.93C67.7969 15.917 67.533 15.9745 67.2973 16.0966C67.0615 16.2187 66.8622 16.4011 66.7196 16.6253L66.6415 16.036H65.7193V20.6026H66.8169V18.7409C66.8169 18.355 66.8065 17.8804 66.9645 17.524C67.1139 17.1903 67.3691 16.9452 67.7546 16.9452C68.3329 16.9452 68.5084 17.2703 68.5084 17.8144V20.6148L69.6059 20.6096ZM74.8766 20.5574V19.7491C74.8304 19.7598 74.7833 19.7656 74.7359 19.7665C74.5519 19.7665 74.4807 19.6883 74.4807 19.4762V17.7831C74.4941 17.47 74.45 17.1571 74.3504 16.86C74.0864 16.1751 73.4196 15.93 72.6398 15.93C71.6221 15.93 70.8059 16.3855 70.7452 17.4128H71.8062C71.8323 16.9921 72.131 16.7644 72.6398 16.7644C73.2615 16.7644 73.4109 17.053 73.4109 17.4841V17.757L72.0685 17.8543C71.2001 17.9152 70.5246 18.4158 70.5246 19.285C70.5246 20.0307 71.0873 20.7156 72.1744 20.7156C72.8239 20.7156 73.3501 20.401 73.5637 20.0307C73.5826 20.2174 73.674 20.3893 73.8182 20.5092C73.9624 20.6292 74.1479 20.6877 74.3348 20.6722C74.5239 20.6783 74.7114 20.6364 74.8801 20.5505L74.8766 20.5574ZM73.4109 18.7913C73.4109 19.4675 72.9281 19.8343 72.2439 19.8343C72.1636 19.8409 72.0829 19.8313 72.0064 19.806C71.93 19.7807 71.8594 19.7402 71.799 19.687C71.7385 19.6337 71.6894 19.5689 71.6545 19.4962C71.6197 19.4236 71.5998 19.3446 71.5961 19.2641C71.5961 18.8956 71.9208 18.6939 72.2525 18.6679L73.4109 18.5792V18.7913Z" fill="#1A171B"/>
</svg>
