<svg width="72" height="26" viewBox="0 0 72 26" fill="none" xmlns="http://www.w3.org/2000/svg">
<g id="Layer_1" clip-path="url(#clip0_401_49223)">
<path id="Vector" d="M69.6056 3.87679C69.6038 3.73554 69.631 3.59543 69.6855 3.46506C69.74 3.33469 69.8207 3.2168 69.9226 3.11869C70.0245 3.02057 70.1454 2.94428 70.278 2.89452C70.4106 2.84475 70.5519 2.82256 70.6934 2.82931C70.8344 2.82588 70.9746 2.85081 71.1057 2.90257C71.2368 2.95434 71.3561 3.03189 71.4564 3.13062C71.5568 3.22934 71.6363 3.34721 71.6901 3.47721C71.7438 3.6072 71.7708 3.74667 71.7693 3.88727C71.7694 4.0283 71.7409 4.16788 71.6856 4.29767C71.6303 4.42746 71.5493 4.54478 71.4475 4.6426C71.3456 4.74041 71.225 4.81671 71.0928 4.86691C70.9607 4.91711 70.8197 4.9402 70.6784 4.93476C70.5377 4.93777 70.3979 4.91254 70.2671 4.86059C70.1364 4.80865 70.0174 4.73104 69.9173 4.63235C69.8173 4.53367 69.7381 4.41592 69.6845 4.28613C69.631 4.15633 69.6041 4.01713 69.6056 3.87679ZM69.8847 3.88578C69.8804 3.99361 69.898 4.10118 69.9363 4.20212C69.9746 4.30305 70.0328 4.39527 70.1076 4.4733C70.1823 4.55134 70.2721 4.61359 70.3714 4.65635C70.4708 4.69912 70.5777 4.72154 70.6859 4.72226C70.794 4.72092 70.9007 4.69811 70.9999 4.65515C71.099 4.61219 71.1886 4.54995 71.2634 4.47206C71.3381 4.39418 71.3966 4.3022 71.4352 4.20153C71.4739 4.10087 71.4921 3.99353 71.4887 3.88578C71.4919 3.77788 71.4735 3.67041 71.4347 3.56965C71.3959 3.4689 71.3373 3.37685 71.2625 3.29887C71.1876 3.22089 71.098 3.15852 70.9987 3.11542C70.8995 3.07231 70.7927 3.04932 70.6844 3.04778C70.5762 3.04848 70.4691 3.07095 70.3698 3.11383C70.2704 3.1567 70.1807 3.21912 70.106 3.29733C70.0314 3.37555 69.9733 3.46797 69.9353 3.56907C69.8972 3.67017 69.88 3.77789 69.8847 3.88578Z" fill="black"/>
<path id="Vector_2" d="M70.8635 3.96187C70.9655 4.13097 71.06 4.28658 71.1636 4.45268C71.0135 4.49907 70.9235 4.47812 70.8635 4.34045C70.8218 4.24133 70.7679 4.14782 70.7029 4.06212C70.6415 4.00828 70.5734 3.96253 70.5003 3.92596V4.46317L70.2812 4.47513V3.29297C70.4988 3.30195 70.7179 3.30046 70.9325 3.3259C71.002 3.33383 71.0658 3.36837 71.1103 3.42224C71.1548 3.47612 71.1766 3.54511 71.1711 3.6147C71.1771 3.8212 71.069 3.92147 70.8635 3.96187ZM70.5033 3.79726C70.6115 3.79725 70.7195 3.78774 70.826 3.76883C70.8536 3.75701 70.8779 3.73874 70.897 3.71557C70.916 3.69239 70.9293 3.66498 70.9355 3.63565C70.9314 3.60582 70.92 3.57748 70.9021 3.55318C70.8843 3.52888 70.8607 3.50939 70.8335 3.49648C70.7244 3.47838 70.6138 3.47088 70.5033 3.47405V3.79726Z" fill="black"/>
<g id="Group 872">
<path id="Vector_3" d="M5.03925 -0.000928789L5.84204 0.0738913C6.73303 0.145675 7.60968 0.340573 8.44689 0.652998C9.88436 1.20966 10.8027 2.24369 11.2978 3.68024C11.6353 4.68235 11.8632 5.71786 11.9776 6.7688C12.1778 8.57563 12.2365 10.3953 12.1531 12.2112C12.0901 13.9261 11.9371 15.632 11.4374 17.2885C11.1703 18.1759 10.7952 19.0124 10.15 19.7007C9.3457 20.5596 8.32687 21.0191 7.19549 21.2615C6.50201 21.4042 5.79538 21.4734 5.08732 21.468C3.46228 21.468 1.83573 21.468 0.210692 21.468C0.138668 21.468 0.0606153 21.468 -0.00390625 21.4784V-0.00390625L5.03925 -0.000928789ZM4.34901 19.1156C4.73764 19.1156 5.11578 19.1381 5.4894 19.1156C5.92242 19.1016 6.33805 18.9423 6.66892 18.6634C6.9998 18.3844 7.22655 18.0023 7.3125 17.5788C7.51109 16.6797 7.61623 15.7625 7.62615 14.8419C7.67417 13.3305 7.70064 11.8187 7.70565 10.3063C7.70565 8.59142 7.65768 6.87654 7.38159 5.17812C7.30673 4.56019 7.12009 3.96092 6.83084 3.40938C6.21564 2.34394 5.43987 2.28109 4.34901 2.38285V19.1156Z" fill="black"/>
<path id="Vector_4" d="M17.0971 0C17.0971 1.17617 17.0971 2.35186 17.0971 3.52703V3.74999H13.0352V0H17.0971Z" fill="black"/>
<path id="Vector_5" d="M57.9865 5.39922V5.03858H62.0153V20.9738C62.0153 21.9913 61.8217 22.9595 61.2411 23.8169C60.5193 24.8824 59.478 25.4794 58.2491 25.7802C57.2349 26.0086 56.1892 26.0637 55.1566 25.9433C54.2 25.8663 53.2593 25.6542 52.3626 25.3133C52.2877 25.2914 52.2161 25.2597 52.1496 25.2191C52.1045 25.1847 52.0505 25.1083 52.061 25.0694C52.211 24.3796 52.3611 23.6928 52.5111 23.0059C52.5141 22.995 52.5192 22.9848 52.5261 22.976C52.9838 23.0987 53.4265 23.2348 53.8841 23.3366C54.5788 23.5026 55.2916 23.5806 56.0058 23.5685C56.2337 23.5626 56.4604 23.5341 56.6826 23.4832C57.014 23.4175 57.3211 23.2625 57.5705 23.0351C57.8199 22.8078 58.0022 22.5167 58.0976 22.1933C58.3181 21.5379 58.3046 20.8705 58.2296 20.1747C57.6534 20.8197 56.8911 20.9663 56.1109 21.0561C55.4491 21.1437 54.7765 21.1 54.1317 20.9274C53.729 20.8258 53.3518 20.6419 53.0241 20.3875C52.6963 20.133 52.4251 19.8134 52.2276 19.449C52.0118 19.0125 51.8243 18.5626 51.6664 18.1022C51.648 18.0166 51.6631 17.9272 51.7084 17.8523C52.2511 16.8448 52.5935 15.7422 52.7167 14.6051C52.9365 12.7271 52.5508 10.8282 51.6154 9.18361C51.566 9.10397 51.5333 9.01517 51.5194 8.92256C51.5055 8.82996 51.5106 8.7355 51.5343 8.64491C51.7049 7.81114 52.0523 7.02339 52.5532 6.33447C53.428 5.19122 54.6014 4.73631 56.0193 4.83807C56.6804 4.87067 57.324 5.0605 57.8964 5.39173C57.926 5.398 57.9563 5.40052 57.9865 5.39922ZM57.9865 13.0488C57.9865 11.316 57.9865 9.58317 57.9865 7.85033C57.9865 7.68872 57.934 7.60492 57.7854 7.56901C57.5965 7.51226 57.4039 7.46777 57.2092 7.43582C56.0328 7.3221 55.6922 7.76653 55.5752 8.63295C55.4822 9.31231 55.4326 9.99916 55.3996 10.6845C55.2907 12.8697 55.3269 15.0598 55.5077 17.2403C55.5414 17.5597 55.6108 17.8744 55.7147 18.1785C55.7584 18.3203 55.8391 18.4479 55.9485 18.5484C56.0579 18.6488 56.1921 18.7185 56.3374 18.7501C56.5837 18.8181 56.8413 18.8355 57.0946 18.8013C57.3479 18.7671 57.5916 18.682 57.8109 18.5511C57.8682 18.5217 57.9155 18.476 57.9468 18.4198C57.978 18.3636 57.9918 18.2994 57.9865 18.2354C57.9865 16.504 57.9865 14.7772 57.9865 13.0488Z" fill="black"/>
<path id="Vector_6" d="M26.8474 9.0394H23.6558C23.6198 8.78197 23.5697 8.52671 23.5057 8.27474C23.2762 7.56545 22.6444 7.23773 21.9617 7.46369C21.762 7.5189 21.5848 7.63527 21.455 7.79638C21.3252 7.95748 21.2494 8.15517 21.2384 8.36153C21.1963 8.68977 21.2274 9.02326 21.3296 9.3381C21.4319 9.65294 21.6026 9.94134 21.8296 10.1827C22.4658 10.8545 23.1411 11.4935 23.8253 12.119C24.5756 12.8118 25.3513 13.4882 25.9635 14.3157C27.0844 15.8301 27.218 17.4866 26.5637 19.206C26.1136 20.3672 25.2013 21.069 24.0204 21.3982C22.7183 21.7694 21.3333 21.7323 20.053 21.292C18.6786 20.8281 17.9284 19.818 17.6883 18.4159C17.6268 18.0537 17.6117 17.6841 17.5742 17.3055H20.8543C20.8873 17.5494 20.9054 17.7874 20.9549 18.0178C21.0013 18.2256 21.0986 18.4186 21.2382 18.5795C21.3778 18.7404 21.5554 18.8643 21.7548 18.9399C21.9543 19.0156 22.1694 19.0407 22.381 19.0129C22.5926 18.9852 22.7939 18.9055 22.967 18.781C23.3331 18.5206 23.5042 17.8966 23.3497 17.3774C23.2337 17.0101 23.0213 16.6804 22.7345 16.4227C22.0067 15.7373 21.2565 15.0759 20.5302 14.389C20.0186 13.9042 19.5159 13.4074 19.0402 12.8926C18.32 12.104 17.9734 11.1404 17.8729 10.0959C17.8004 9.47955 17.7863 8.85779 17.8308 8.23883C17.9703 6.76487 18.8257 5.7952 20.1611 5.22507C20.9924 4.86893 21.8746 4.7941 22.7704 4.84049C23.2983 4.85883 23.8208 4.95258 24.322 5.11884C25.7355 5.60966 26.5277 6.61523 26.7813 8.06974C26.8188 8.28672 26.8338 8.50819 26.8533 8.72816C26.8548 8.81046 26.8474 8.91221 26.8474 9.0394Z" fill="black"/>
<path id="Vector_7" d="M71.9334 9.03974H68.7118C68.6671 8.76623 68.607 8.49545 68.5317 8.22868C68.3367 7.65855 67.8715 7.3518 67.3313 7.40268C66.5736 7.47152 66.1774 8.00123 66.281 8.79283C66.3346 9.35635 66.5804 9.8845 66.9772 10.2892C67.6395 10.9476 68.3151 11.5916 69.0044 12.2211C69.6901 12.8481 70.3759 13.4721 70.9461 14.2098C72.1209 15.7332 72.283 17.4121 71.6228 19.1689C71.1816 20.3465 70.2558 21.0559 69.0599 21.3881C67.7869 21.7453 66.436 21.7162 65.1796 21.3042C63.7977 20.8553 63.0144 19.8842 62.7533 18.4805C62.6812 18.096 62.6602 17.7024 62.6152 17.2954H65.9163C65.9373 17.4944 65.9509 17.6949 65.9839 17.894C66.1339 18.8352 67.0522 19.2796 67.9075 18.8367C68.1082 18.7366 68.2629 18.5636 68.3397 18.3533C68.4303 18.1469 68.471 17.9221 68.4588 17.697C68.4465 17.472 68.3816 17.2529 68.2691 17.0575C68.1254 16.806 67.9477 16.5754 67.741 16.3721C67.0717 15.7302 66.371 15.1196 65.7003 14.4807C65.1331 13.9405 64.5689 13.3943 64.0422 12.8152C63.3685 12.067 63.0579 11.1691 62.9243 10.183C62.8132 9.50421 62.7955 8.81348 62.8718 8.12993C63.0729 6.69338 63.9072 5.74916 65.2172 5.19549C66.0514 4.84383 66.9322 4.76901 67.828 4.81839C68.4221 4.838 69.0087 4.95582 69.5641 5.16705C70.82 5.67133 71.5447 6.61108 71.8013 7.91893C71.8689 8.28106 71.8883 8.64618 71.9334 9.03974Z" fill="black"/>
<path id="Vector_8" d="M33.692 9.72142C33.692 9.43711 33.707 9.17523 33.692 8.91486C33.6738 8.61728 33.6352 8.32129 33.5764 8.02898C33.5548 7.8638 33.4803 7.70996 33.3641 7.59029C33.2479 7.47062 33.0961 7.39148 32.9313 7.36459C32.7573 7.32464 32.5754 7.33605 32.4078 7.39743C32.2402 7.45881 32.0941 7.5675 31.9874 7.71025C31.7973 7.97557 31.677 8.28432 31.6378 8.60809C31.4862 9.63098 31.4159 10.6642 31.4278 11.6982C31.4278 13.1557 31.4278 14.6147 31.4683 16.0721C31.4878 16.738 31.5943 17.401 31.6739 18.0639C31.6967 18.1998 31.7413 18.3311 31.8059 18.4529C31.8666 18.5886 31.9542 18.7105 32.0633 18.8116C32.1725 18.9126 32.3011 18.9905 32.4413 19.0407C32.5814 19.0909 32.7303 19.1123 32.879 19.1036C33.0277 19.0949 33.173 19.0563 33.3064 18.9901C33.4202 18.9366 33.52 18.8575 33.5981 18.7592C33.6761 18.6608 33.7304 18.5457 33.7565 18.423C33.8376 18.0923 33.8946 17.7571 33.9681 17.3995C34.0026 17.3995 34.0597 17.3905 34.1182 17.3905C34.5083 17.3905 34.8969 17.3905 35.2871 17.3905C35.3388 17.3866 35.3905 17.3989 35.4349 17.4257C35.4792 17.4526 35.5142 17.4926 35.5346 17.5401C35.8678 18.0928 36.2104 18.6385 36.5625 19.1772C36.5941 19.2149 36.6142 19.2609 36.6206 19.3096C36.627 19.3584 36.6193 19.4079 36.5985 19.4525C36.4421 19.8623 36.1988 20.2337 35.8851 20.541C35.5715 20.8484 35.195 21.0845 34.7814 21.2332C33.6152 21.6788 32.3403 21.7582 31.1277 21.4607C29.9077 21.1614 29.045 20.3968 28.4268 19.3313C27.8836 18.3916 27.6015 17.365 27.4289 16.3041C27.1948 14.7729 27.1364 13.2201 27.2549 11.6757C27.3449 10.311 27.567 8.97172 28.1461 7.71474C28.6728 6.57299 29.4471 5.67215 30.643 5.18582C31.4338 4.87979 32.2837 4.75551 33.1293 4.8222C33.7956 4.8424 34.4511 4.99502 35.0575 5.27112C35.4985 5.47745 35.8921 5.77223 36.2138 6.13705C36.5355 6.50188 36.7783 6.92892 36.9271 7.39151C36.9351 7.42294 36.9361 7.45576 36.9299 7.4876C36.9236 7.51943 36.9104 7.54948 36.8911 7.57557C36.3513 8.19398 35.8934 8.87894 35.5286 9.61367C35.5157 9.63801 35.4976 9.65922 35.4756 9.67578C35.4535 9.69233 35.4281 9.70382 35.4011 9.70944C34.8534 9.7244 34.3027 9.72142 33.692 9.72142Z" fill="black"/>
<path id="Vector_9" d="M13.043 5.03516H17.0793V21.4612H13.043V5.03516Z" fill="black"/>
<path id="Vector_10" d="M38.6762 18.8662L37.8554 19.7521C35.117 17.3219 34.0562 12.6307 36.61 8.84926C37.7995 7.06773 39.6201 5.80025 41.707 5.30075C43.7939 4.80125 45.9931 5.10664 47.8638 6.15574L47.2995 7.18676C45.763 6.33301 43.9701 6.05813 42.2474 6.41217C40.5247 6.7662 38.9868 7.72562 37.9139 9.11563C36.7975 10.5394 36.2639 12.3324 36.4209 14.1331C36.562 15.9946 37.3423 17.5538 38.6762 18.8662Z" fill="black"/>
<path id="Vector_11" d="M39.6133 21.034C39.8143 20.6779 40.0109 20.3322 40.206 19.9866C43.8582 21.9169 47.743 20.4355 49.6156 17.8916C51.6143 15.1861 51.6188 11.068 48.8504 8.34604L49.6427 7.49609C52.2716 9.87238 53.3219 14.5037 50.8325 18.2492C49.6589 20.0384 47.8509 21.3193 45.7705 21.8357C43.6902 22.3521 41.491 22.0658 39.6133 21.034Z" fill="black"/>
<path id="Vector_12" d="M39.6212 17.8467L38.8079 18.7235C36.5241 16.7139 35.6449 12.7784 37.7576 9.62992C38.7516 8.12758 40.2803 7.05739 42.0349 6.63549C43.7895 6.21359 45.6393 6.47141 47.2107 7.35688L46.633 8.41632C44.9825 7.54691 43.2854 7.40627 41.5463 8.07815C40.3552 8.53591 39.3493 9.37342 38.6849 10.4604C37.9678 11.6119 37.6695 12.9743 37.84 14.3191C38.0105 15.6639 38.6393 16.9093 39.6212 17.8467Z" fill="black"/>
<path id="Vector_13" d="M40.3008 19.8173L40.8935 18.7698C42.1098 19.4173 43.5133 19.6252 44.8657 19.3582C46.2182 19.0912 47.4363 18.3657 48.3134 17.3048C49.9985 15.2757 50.2926 11.7307 47.9023 9.37389L48.7186 8.5C51.0654 10.6907 51.7391 14.6891 49.5184 17.7388C47.1551 20.9815 43.0227 21.3721 40.3008 19.8173Z" fill="black"/>
<path id="Vector_14" d="M45.9598 9.62645C44.9944 9.09041 43.8672 8.92042 42.786 9.14784C41.7048 9.37526 40.7424 9.98475 40.0763 10.864C39.4211 11.7497 39.1097 12.8421 39.1996 13.9392C39.2895 15.0363 39.7748 16.0637 40.5655 16.8316L39.7553 17.7055C37.8046 15.9547 37.2164 12.6297 39.113 10.1262C41.0757 7.53148 44.4353 7.3115 46.533 8.58344L45.9598 9.62645Z" fill="black"/>
<path id="Vector_15" d="M46.9588 10.3895L47.7736 9.51562C48.795 10.5199 49.4008 11.8703 49.4708 13.2991C49.5408 14.7278 49.07 16.1307 48.1517 17.2296C46.105 19.6882 42.8774 19.7241 40.9883 18.6063L41.5735 17.5678C42.1393 17.8689 42.763 18.0467 43.403 18.0893C44.043 18.1318 44.6848 18.0382 45.2857 17.8147C46.1711 17.4922 46.9326 16.9008 47.4629 16.1237C48.0528 15.2558 48.3247 14.2117 48.2329 13.1673C48.1411 12.1228 47.6911 11.1418 46.9588 10.3895Z" fill="black"/>
<path id="Vector_16" d="M45.8636 9.79964C45.6745 10.1408 45.4859 10.483 45.2979 10.8262C44.6254 10.4491 43.839 10.3269 43.0834 10.482C42.3277 10.637 41.6536 11.059 41.185 11.6701C40.7263 12.2846 40.5053 13.0433 40.5624 13.8072C40.6194 14.571 40.9508 15.2888 41.4956 15.8286L40.6958 16.6906C39.2704 15.4216 38.7452 12.8957 40.2262 10.9519C41.7552 8.93472 44.3526 8.85242 45.8636 9.79964Z" fill="black"/>
<path id="Vector_17" d="M46.8247 10.5234C47.5629 11.2646 48.0073 12.247 48.076 13.2894C48.1446 14.3317 47.833 15.3637 47.1984 16.1948C46.571 17.0197 45.6686 17.5937 44.654 17.8132C43.6395 18.0327 42.5798 17.8833 41.666 17.3919C41.8566 17.0522 42.0456 16.7126 42.2452 16.3579C42.6487 16.5669 43.0925 16.687 43.5466 16.71C44.0007 16.7329 44.4544 16.6583 44.8771 16.4911C45.4797 16.2581 45.9947 15.8439 46.3506 15.3059C46.7448 14.7096 46.9262 13.9983 46.8658 13.2866C46.8054 12.5749 46.5066 11.9041 46.0175 11.3824C46.2831 11.1055 46.5501 10.8197 46.8247 10.5234Z" fill="black"/>
<path id="Vector_18" d="M43.7178 15.9762C43.3996 15.9764 43.0844 15.914 42.7903 15.7928C42.4962 15.6715 42.229 15.4937 42.0038 15.2694C41.7786 15.0451 41.6 14.7788 41.478 14.4857C41.3561 14.1925 41.2932 13.8783 41.293 13.561C41.2965 12.9232 41.5525 12.3128 42.0053 11.8624C42.458 11.412 43.0708 11.1582 43.7103 11.1563C44.0284 11.1561 44.3435 11.2184 44.6375 11.3397C44.9315 11.461 45.1987 11.6388 45.4237 11.8631C45.6488 12.0874 45.8273 12.3537 45.9491 12.6468C46.0709 12.94 46.1335 13.2542 46.1335 13.5714C46.1304 14.209 45.8748 14.8195 45.4223 15.2699C44.9698 15.7204 44.3571 15.9742 43.7178 15.9762ZM46.036 13.564C46.034 12.9506 45.7882 12.3631 45.3525 11.9303C44.9168 11.4975 44.3268 11.2546 43.7118 11.255C43.0967 11.2558 42.5069 11.4997 42.0718 11.9334C41.6367 12.367 41.3917 12.955 41.3905 13.5685C41.3948 14.1819 41.6414 14.7688 42.0768 15.2022C42.5121 15.6355 43.1012 15.8802 43.7163 15.8834C44.3314 15.8798 44.9204 15.6341 45.3548 15.1998C45.7892 14.7654 46.0341 14.1775 46.036 13.564Z" fill="black"/>
<path id="Vector_19" d="M44.0916 13.5711C44.0901 13.6706 44.0491 13.7654 43.9777 13.8349C43.9063 13.9044 43.8103 13.943 43.7105 13.9422C43.6112 13.9394 43.517 13.8982 43.4478 13.8272C43.3785 13.7562 43.3398 13.6611 43.3398 13.5621C43.3402 13.5129 43.3504 13.4643 43.3699 13.4191C43.3893 13.3739 43.4177 13.333 43.4532 13.2989C43.4887 13.2647 43.5307 13.238 43.5766 13.2202C43.6226 13.2025 43.6717 13.1941 43.721 13.1955C43.7702 13.1953 43.819 13.2049 43.8644 13.2237C43.9099 13.2426 43.9512 13.2704 43.9857 13.3054C44.0202 13.3404 44.0474 13.3819 44.0655 13.4275C44.0837 13.4732 44.0926 13.522 44.0916 13.5711Z" fill="black"/>
</g>
</g>
<defs>
<clipPath id="clip0_401_49223">
<rect width="72" height="26" fill="white"/>
</clipPath>
</defs>
</svg>
