<svg width="69" height="36" viewBox="0 0 69 36" fill="none" xmlns="http://www.w3.org/2000/svg">
<g id="layer1">
<g id="g5078">
<g id="g2468">
<g id="Clip path group">
<mask id="mask0_401_49182" style="mask-type:luminance" maskUnits="userSpaceOnUse" x="41" y="0" width="28" height="20">
<g id="clip-path">
<path id="Vector" d="M69.0004 0H41.1445V19.7529H69.0004V0Z" fill="white"/>
</g>
</mask>
<g mask="url(#mask0_401_49182)">
<g id="Group">
<g id="g2466">
<g id="g2452">
<path id="path2450" d="M42.2101 18.2342H42.9952C43.3068 18.2342 43.5145 18.3675 43.5145 18.7013C43.5145 19.035 43.2663 19.1301 42.9817 19.1301H42.2101V18.2342ZM41.4883 19.688H43.0783C43.6713 19.688 44.2353 19.4039 44.2353 18.7426C44.2353 18.3355 44.0338 18.0296 43.6339 17.916C43.7688 17.8608 43.8836 17.7661 43.9632 17.6445C44.0428 17.5229 44.0833 17.3801 44.0795 17.2351C44.0795 16.6275 43.6568 16.426 43.0316 16.426H41.4883V19.688ZM42.2101 16.9829H42.8851C43.1427 16.9829 43.3815 17.047 43.3815 17.357C43.3815 17.6318 43.1925 17.7455 42.9402 17.7455H42.2132L42.2101 16.9829ZM45.9489 18.7736C45.9489 18.9162 45.9302 19.3181 45.4213 19.3181C45.2136 19.3181 45.0214 19.2582 45.0214 19.0164C45.0214 18.7746 45.2052 18.7064 45.4067 18.6692C45.6082 18.632 45.8388 18.6279 45.9489 18.5318V18.7736ZM45.0952 18.0503C45.117 17.7951 45.278 17.6938 45.5262 17.6938C45.7567 17.6938 45.9489 17.7352 45.9489 18.0141C45.9489 18.2931 45.577 18.2663 45.1772 18.3241C44.7774 18.382 44.3692 18.507 44.3692 19.0412C44.3692 19.5258 44.7275 19.75 45.1772 19.75C45.3234 19.7572 45.4696 19.735 45.607 19.6847C45.7444 19.6345 45.8702 19.5573 45.9769 19.4576C45.9832 19.5352 45.9985 19.6119 46.0226 19.686H46.6842C46.6239 19.5899 46.601 19.376 46.601 19.16V17.9315C46.601 17.3642 46.0319 17.2588 45.5625 17.2588C45.0297 17.2588 44.4834 17.4417 44.4461 18.0493L45.0952 18.0503ZM46.923 19.687H47.5752V18.6217C47.5752 18.2084 47.7404 17.8633 48.2181 17.8633C48.2969 17.8631 48.3756 17.8711 48.4528 17.887V17.2826C48.4064 17.2681 48.3581 17.2604 48.3095 17.2599C48.1479 17.2621 47.9905 17.3108 47.8561 17.4001C47.7218 17.4894 47.6163 17.6154 47.5524 17.7631H47.543V17.327H46.9199L46.923 19.687ZM50.7812 18.1557C50.7397 17.5533 50.2245 17.2599 49.6648 17.2599C48.8931 17.2599 48.4528 17.8044 48.4528 18.5401C48.4528 19.2479 48.9347 19.7511 49.6513 19.7511C50.2744 19.7511 50.7127 19.408 50.7937 18.7819H50.1643C50.1228 19.0701 49.9483 19.2623 49.645 19.2623C49.2369 19.2623 49.1029 18.8552 49.1029 18.5173C49.1029 18.1795 49.241 17.7486 49.6585 17.7486C49.7171 17.7436 49.7762 17.7503 49.8322 17.7681C49.8882 17.7859 49.9402 17.8145 49.985 17.8523C50.0299 17.8901 50.0668 17.9364 50.0937 17.9885C50.1205 18.0405 50.1368 18.0974 50.1415 18.1557H50.7812ZM53.3205 18.663C53.3662 17.9397 52.9757 17.2599 52.1677 17.2599C51.4469 17.2599 50.9557 17.7992 50.9557 18.508C50.9557 19.2386 51.4189 19.748 52.1677 19.748C52.7056 19.748 53.0961 19.5103 53.2799 18.9523H52.7056C52.6641 19.0991 52.4522 19.2623 52.1864 19.2623C51.8239 19.2623 51.6214 19.0743 51.6037 18.663H53.3205ZM51.6079 18.2497C51.6096 18.1811 51.6251 18.1136 51.6533 18.051C51.6816 17.9885 51.722 17.9321 51.7724 17.8853C51.8228 17.8384 51.882 17.802 51.9467 17.7782C52.0113 17.7544 52.0801 17.7436 52.149 17.7465C52.4668 17.7465 52.6091 17.9211 52.6682 18.2497H51.6079ZM53.6331 19.6849H54.2853V16.4219H53.6331V19.6849ZM54.5418 18.506C54.5418 19.2551 55.0247 19.7459 55.7694 19.7459C56.514 19.7459 57 19.252 57 18.506C57 17.76 56.5171 17.2578 55.7694 17.2578C55.0216 17.2578 54.5418 17.7517 54.5418 18.506ZM55.195 18.506C55.195 18.1268 55.328 17.7465 55.7694 17.7465C56.2107 17.7465 56.3478 18.1268 56.3478 18.506C56.3478 18.8852 56.2149 19.2603 55.7694 19.2603C55.3238 19.2603 55.195 18.88 55.195 18.506ZM57.2389 19.6849H57.8911V18.445C57.8911 17.9656 58.0427 17.7693 58.3958 17.7693C58.6991 17.7693 58.8112 17.9604 58.8112 18.3489V19.6839H59.4635V18.2301C59.4635 17.6463 59.289 17.2568 58.5952 17.2568C58.4503 17.2551 58.3074 17.2904 58.1802 17.3593C58.0529 17.4282 57.9455 17.5284 57.8683 17.6504H57.8547V17.327H57.2316L57.2389 19.6849ZM61.257 18.7705C61.257 18.9131 61.2394 19.315 60.7295 19.315C60.5217 19.315 60.3296 19.2551 60.3296 19.0133C60.3296 18.7715 60.5134 18.7033 60.7159 18.6661C60.9185 18.6289 61.1469 18.6248 61.257 18.5287V18.7705ZM60.4033 18.0472C60.4262 17.792 60.5872 17.6907 60.8354 17.6907C61.0649 17.6907 61.257 17.7321 61.257 18.011C61.257 18.29 60.8852 18.2632 60.4854 18.321C60.0855 18.3789 59.6774 18.5039 59.6774 19.0381C59.6774 19.5227 60.0357 19.7469 60.4854 19.7469C60.6316 19.7541 60.7778 19.732 60.9152 19.6817C61.0526 19.6315 61.1784 19.5542 61.2851 19.4545C61.2909 19.5322 61.3062 19.6089 61.3308 19.6829H61.9923C61.9331 19.5868 61.9103 19.3729 61.9103 19.1569V17.9284C61.9103 17.3611 61.3401 17.2557 60.8717 17.2557C60.339 17.2557 59.7916 17.4386 59.7553 18.0462L60.4033 18.0472Z" fill="black"/>
</g>
<g id="g2456">
<path id="path2454" d="M44.372 13.167C44.2848 12.4127 43.6783 11.9922 42.9575 11.9922C41.9429 11.9922 41.3457 12.7454 41.3457 13.7146C41.3457 14.6559 41.9429 15.4102 42.9575 15.4102C43.7614 15.4102 44.3263 14.8936 44.4001 14.0763H43.7011C43.6461 14.5051 43.3979 14.8068 42.9575 14.8068C42.3095 14.8068 42.0664 14.2581 42.0664 13.7146C42.0664 13.1432 42.3095 12.5956 42.9575 12.5956C43.1257 12.5906 43.2902 12.6454 43.4215 12.7501C43.5528 12.8548 43.6424 13.0026 43.6741 13.167H44.372ZM44.5579 14.1527C44.5579 14.9029 45.0398 15.3927 45.7834 15.3927C46.527 15.3927 47.0151 14.8988 47.0151 14.1527C47.0151 13.4067 46.5322 12.9056 45.7834 12.9056C45.0346 12.9056 44.5579 13.3995 44.5579 14.1527ZM45.2101 14.1527C45.2101 13.7746 45.3431 13.3954 45.7834 13.3954C46.2238 13.3954 46.3629 13.7746 46.3629 14.1527C46.3629 14.5309 46.2289 14.907 45.7834 14.907C45.3379 14.907 45.2101 14.5289 45.2101 14.1527ZM47.2644 15.3327H47.9166V13.9616C47.9166 13.4997 48.2282 13.4181 48.358 13.4181C48.7734 13.4181 48.7526 13.7281 48.7526 14.0071V15.3327H49.4048V14.0174C49.4048 13.7208 49.4733 13.4191 49.841 13.4191C50.2086 13.4191 50.2408 13.6795 50.2408 13.9947V15.3379H50.8931V13.757C50.8931 13.1443 50.5306 12.9108 50.0248 12.9108C49.882 12.9122 49.7417 12.949 49.6166 13.0177C49.4916 13.0864 49.3856 13.1849 49.3082 13.3044C49.1795 13.0203 48.9136 12.9108 48.6145 12.9108C48.4707 12.9092 48.3288 12.9436 48.2018 13.0108C48.0748 13.0779 47.9667 13.1757 47.8875 13.2951H47.8792V12.9748H47.2633L47.2644 15.3327ZM53.4437 12.9697H52.7915V14.2096C52.7915 14.689 52.6399 14.8853 52.2868 14.8853C51.9835 14.8853 51.8714 14.6931 51.8714 14.3057V12.9707H51.2192V14.4235C51.2192 15.0093 51.3936 15.3978 52.0874 15.3978C52.2323 15.3995 52.3752 15.3642 52.5025 15.2953C52.6297 15.2264 52.7371 15.1261 52.8144 15.0042H52.8279V15.3338H53.451L53.4437 12.9697ZM53.8405 15.3327H54.4927V14.0928C54.4927 13.6134 54.6443 13.4171 54.9974 13.4171C55.3006 13.4171 55.4128 13.6082 55.4128 13.9967V15.3317H56.065V13.8789C56.065 13.2931 55.8906 12.9046 55.1968 12.9046C55.0519 12.9027 54.9089 12.9379 54.7816 13.0068C54.6543 13.0758 54.5469 13.1761 54.4698 13.2982H54.4563V12.9686H53.8332L53.8405 15.3327ZM56.3911 15.3327H57.0433V12.9697H56.3911V15.3327ZM57.0433 12.0697H56.3911V12.6039H57.0433V12.0697ZM58.2844 12.2619H57.6332V12.9697H57.2375V13.4047H57.6332V14.7975C57.6332 15.2687 57.9822 15.3606 58.382 15.3606C58.5095 15.3625 58.6369 15.3546 58.7632 15.3369V14.8306C58.6947 14.8433 58.6251 14.8492 58.5555 14.8481C58.3342 14.8481 58.2792 14.7934 58.2792 14.5743V13.4047H58.758V12.9697H58.2792L58.2844 12.2619ZM60.5464 14.4183C60.5464 14.5609 60.5277 14.9628 60.0177 14.9628C59.81 14.9628 59.6179 14.9029 59.6179 14.6611C59.6179 14.4193 59.8017 14.3511 60.0042 14.3139C60.2067 14.2767 60.4363 14.2726 60.5464 14.1765V14.4183ZM59.6916 13.695C59.7145 13.4398 59.8755 13.3385 60.1237 13.3385C60.3532 13.3385 60.5464 13.3799 60.5464 13.6588C60.5464 13.9378 60.1745 13.911 59.7747 13.9688C59.3749 14.0267 58.9667 14.1507 58.9667 14.6859C58.9667 15.1705 59.325 15.3947 59.7747 15.3947C59.9207 15.4019 60.0667 15.3796 60.2039 15.3294C60.3412 15.2792 60.4668 15.2019 60.5734 15.1023C60.5802 15.1799 60.5955 15.2564 60.6191 15.3307H61.2806C61.2214 15.2346 61.1985 15.0207 61.1985 14.8047V13.5751C61.1985 13.0089 60.6294 12.9035 60.16 12.9035C59.6272 12.9035 59.0799 13.0864 59.0436 13.694L59.6916 13.695ZM60.0323 12.6762H60.4861L60.0458 12.0273H59.325L60.0323 12.6762ZM61.6046 15.3317H62.2568V14.2664C62.2568 13.8531 62.422 13.508 62.8997 13.508C62.9781 13.508 63.0564 13.5156 63.1334 13.5307V12.9273C63.0873 12.9127 63.0394 12.9051 62.9911 12.9046C62.8296 12.9072 62.6724 12.956 62.5381 13.0453C62.4038 13.1345 62.2982 13.2604 62.234 13.4078H62.2246V12.9686H61.6015L61.6046 15.3317ZM63.4013 15.3317H64.0545V12.9686H63.4013V15.3317ZM64.0535 12.0686H63.4013V12.6028H64.0535V12.0686ZM66.6281 14.3077C66.6738 13.5844 66.2833 12.9046 65.4753 12.9046C64.7483 12.9046 64.2623 13.4439 64.2623 14.1517C64.2623 14.8833 64.7265 15.3916 65.4753 15.3916C66.0122 15.3916 66.4027 15.154 66.5865 14.596H66.0122C65.9707 14.7427 65.7599 14.906 65.4929 14.906C65.1305 14.906 64.928 14.719 64.9103 14.3077H66.6281ZM64.9145 13.8944C64.9155 13.8256 64.9305 13.7577 64.9586 13.6947C64.9866 13.6318 65.0272 13.5752 65.0779 13.5283C65.1285 13.4814 65.1882 13.4451 65.2533 13.4218C65.3183 13.3984 65.3875 13.3884 65.4566 13.3923C65.7733 13.3923 65.9156 13.5658 65.9759 13.8944H64.9145ZM66.7984 14.5619C66.8264 15.187 67.3644 15.3937 67.9148 15.3937C68.4653 15.3937 68.9991 15.187 68.9991 14.5671C68.9991 14.1279 68.6273 13.9905 68.2451 13.9048C67.8629 13.819 67.5067 13.7849 67.5067 13.5524C67.5067 13.3602 67.7217 13.3323 67.8692 13.3323C68.1039 13.3323 68.296 13.4016 68.3147 13.6526H68.9378C68.8869 13.073 68.4102 12.8984 67.891 12.8984C67.3717 12.8984 66.8524 13.0544 66.8524 13.6568C66.8524 14.0701 67.2294 14.2054 67.6054 14.2881C68.0737 14.3914 68.3448 14.4565 68.3448 14.6539C68.3448 14.8822 68.1059 14.9556 67.918 14.9556C67.6604 14.9556 67.4215 14.8409 67.4174 14.5578L66.7984 14.5619Z" fill="black"/>
</g>
<g id="g2460">
<path id="path2458" d="M41.4902 10.9851H42.211V9.71006H42.9317C43.2952 9.71006 43.4282 9.86091 43.479 10.2029C43.5154 10.4643 43.5061 10.7795 43.5933 10.9851H44.315C44.1863 10.8022 44.1905 10.4178 44.177 10.2122C44.1541 9.88364 44.0523 9.5406 43.6992 9.44967V9.44037C44.0627 9.29365 44.2185 9.0064 44.2185 8.62203C44.2185 8.12916 43.8456 7.72205 43.2589 7.72205H41.4933L41.4902 10.9851ZM42.211 8.28001H43.0013C43.3222 8.28001 43.4967 8.4164 43.4967 8.73155C43.4967 9.0467 43.3222 9.19755 43.0013 9.19755H42.211V8.28001ZM46.0328 10.0707C46.0328 10.2122 46.0141 10.6152 45.5042 10.6152C45.2965 10.6152 45.1044 10.5553 45.1044 10.3135C45.1044 10.0717 45.2882 10.0035 45.4907 9.9663C45.6932 9.92911 45.9227 9.92497 46.0328 9.82888V10.0707ZM45.1781 9.34738C45.2009 9.09216 45.3619 8.9909 45.6101 8.9909C45.8397 8.9909 46.0328 9.03223 46.0328 9.31121C46.0328 9.59019 45.66 9.56229 45.2612 9.62119C44.8624 9.68009 44.4522 9.80408 44.4522 10.3383C44.4522 10.8229 44.8105 11.0471 45.2612 11.0471C45.4073 11.054 45.5533 11.0316 45.6905 10.9812C45.8277 10.9308 45.9533 10.8534 46.0598 10.7537C46.0655 10.8317 46.0809 10.9087 46.1055 10.983H46.7681C46.7079 10.8869 46.685 10.6731 46.685 10.4571V9.22855C46.685 8.66129 46.1149 8.55589 45.6465 8.55589C45.1137 8.55589 44.5674 8.73879 44.5301 9.34635L45.1781 9.34738ZM45.5177 8.32858H45.9726L45.5312 7.67969H44.8104L45.5177 8.32858ZM48.7008 10.9841H49.324V7.71895H48.6718V8.90721H48.6635C48.5855 8.7944 48.4802 8.70298 48.3573 8.6414C48.2344 8.57981 48.0979 8.55005 47.9604 8.55487C47.2625 8.55487 46.9083 9.14486 46.9083 9.78032C46.9083 10.4333 47.2572 11.0461 47.9738 11.0461C48.2771 11.0461 48.543 10.9355 48.6946 10.6803H48.704L48.7008 10.9841ZM48.6915 9.79581C48.6915 10.1843 48.5637 10.5584 48.1317 10.5584C47.7277 10.5584 47.5574 10.1699 47.5574 9.79995C47.5574 9.41144 47.7038 9.04567 48.1317 9.04567C48.5596 9.04567 48.6915 9.41144 48.6915 9.79581ZM49.647 10.9841H50.2992V8.62099H49.647V10.9841ZM50.2992 7.72102H49.647V8.25522H50.2992V7.72102ZM50.5567 9.80512C50.5567 10.5542 51.0386 11.045 51.7833 11.045C52.5279 11.045 53.0139 10.5511 53.0139 9.80512C53.0139 9.0591 52.532 8.55693 51.7833 8.55693C51.0345 8.55693 50.5567 9.05083 50.5567 9.80512ZM51.2089 9.80512C51.2089 9.42591 51.3419 9.04567 51.7833 9.04567C52.2246 9.04567 52.3617 9.42591 52.3617 9.80512C52.3617 10.1843 52.2288 10.5584 51.7833 10.5584C51.3377 10.5584 51.2089 10.1792 51.2089 9.80512ZM53.1375 10.2184C53.1656 10.8446 53.7025 11.0502 54.254 11.0502C54.8054 11.0502 55.3382 10.8435 55.3382 10.2236C55.3382 9.78445 54.9654 9.64703 54.5852 9.56023C54.2051 9.47344 53.8448 9.4414 53.8448 9.20892C53.8448 9.01673 54.0608 8.98883 54.2083 8.98883C54.4419 8.98883 54.6351 9.05807 54.6538 9.30915H55.2769C55.226 8.72845 54.7483 8.55487 54.229 8.55487C53.7098 8.55487 53.1967 8.71089 53.1967 9.31328C53.1967 9.72659 53.5727 9.86194 53.9497 9.9446C54.4181 10.0479 54.6891 10.113 54.6891 10.3104C54.6891 10.5387 54.4503 10.6121 54.2623 10.6121C54.0047 10.6121 53.7658 10.4974 53.7617 10.2143L53.1375 10.2184Z" fill="black"/>
</g>
<g id="g2464">
<path id="path2462" d="M41.1445 6.63024H41.9577L42.6847 5.50088L43.4013 6.63024H44.2602L43.1178 4.92535L44.1688 3.36719H43.3795L42.7138 4.40872L42.0699 3.36719H41.2339L42.2911 4.91709L41.1445 6.63024ZM45.871 5.7158C45.871 5.85736 45.8523 6.2593 45.3424 6.2593C45.1347 6.2593 44.9425 6.2004 44.9425 5.95758C44.9425 5.71477 45.1274 5.64761 45.3288 5.61041C45.5303 5.57321 45.7609 5.57011 45.871 5.47402V5.7158ZM45.0163 4.99252C45.0391 4.7373 45.2001 4.63604 45.4483 4.63604C45.6778 4.63604 45.871 4.67737 45.871 4.95635C45.871 5.23533 45.4992 5.20743 45.0993 5.26633C44.6995 5.32523 44.2914 5.44922 44.2914 5.98342C44.2914 6.46802 44.6496 6.69224 45.0993 6.69224C45.2456 6.69914 45.3918 6.67671 45.5291 6.6263C45.6665 6.57589 45.7923 6.49852 45.899 6.39879C45.9049 6.47672 45.9199 6.55371 45.9437 6.62817H46.6052C46.546 6.53208 46.5232 6.3182 46.5232 6.10224V4.87369C46.5232 4.30643 45.953 4.20103 45.4846 4.20103C44.9518 4.20103 44.4056 4.38392 44.3682 4.99148L45.0163 4.99252ZM46.8451 6.62921H47.4963V5.56391C47.4963 5.1506 47.6625 4.8055 48.1402 4.8055C48.2187 4.80548 48.2969 4.81309 48.3739 4.82823V4.2248C48.3278 4.2104 48.2799 4.20273 48.2316 4.20207C48.07 4.20462 47.9125 4.25343 47.7781 4.34267C47.6436 4.43191 47.5379 4.5578 47.4735 4.70527H47.4641V4.26613H46.841L46.8451 6.62921ZM48.3832 6.62921H49.1102L49.6066 5.88423L50.1031 6.62921H50.8467L49.9701 5.37276L50.7501 4.26613H50.0293L49.6139 4.88609L49.1985 4.26613H48.4549L49.2359 5.38619L48.3832 6.62921ZM52.3931 5.71477C52.3931 5.85633 52.3744 6.25827 51.8644 6.25827C51.6567 6.25827 51.4656 6.19937 51.4656 5.95655C51.4656 5.71373 51.6484 5.64657 51.8509 5.60937C52.0535 5.57218 52.283 5.56908 52.3931 5.47298V5.71477ZM51.5383 4.99148C51.5612 4.73627 51.7222 4.63501 51.9704 4.63501C52.1999 4.63501 52.3931 4.67634 52.3931 4.95532C52.3931 5.2343 52.0212 5.20641 51.6214 5.2653C51.2216 5.3242 50.8124 5.44818 50.8124 5.98238C50.8124 6.46698 51.1717 6.69121 51.6214 6.69121C51.7677 6.69816 51.9138 6.67576 52.0512 6.62535C52.1886 6.57493 52.3144 6.49754 52.4211 6.39776C52.4268 6.4758 52.4421 6.55285 52.4668 6.62715H53.1273C53.0681 6.53105 53.0453 6.31716 53.0453 6.10121V4.87266C53.0453 4.30539 52.4751 4.2 52.0067 4.2C51.4739 4.2 50.9277 4.38289 50.8903 4.99045L51.5383 4.99148Z" fill="black"/>
</g>
</g>
</g>
</g>
</g>
</g>
<g id="g2506">
<g id="g2472">
<path id="path2470" d="M4.08228 3.36719L2.86823 5.26736L1.6957 3.36719H0.172112L2.09758 6.2004L0.00390625 9.3157H1.48693L2.81833 7.25846L4.12381 9.3157H5.68995L3.60454 6.20867L5.52271 3.36719H4.08228Z" fill="black"/>
</g>
<g id="g2476">
<path id="path2474" d="M6.70898 15.9849H8.19201L9.5234 13.9277L10.8299 15.9849H12.395L10.3106 12.8779L12.2278 10.0364H10.7884L9.57533 11.9366L8.39972 10.0312H6.87511L8.80165 12.8645L6.70898 15.9849Z" fill="black"/>
</g>
<g id="g2480">
<path id="path2478" d="M13.3848 22.6204H14.8668L16.1982 20.5632L17.5047 22.6204H19.0708L16.9854 19.5134L18.9026 16.6719H17.4631L16.248 18.572L15.0766 16.6719H13.552L15.4785 19.5051L13.3848 22.6204Z" fill="black"/>
</g>
<g id="g2484">
<path id="path2482" d="M6.70117 29.2649H8.18318L9.51463 27.2077L10.8211 29.2649H12.3862L10.3008 26.1579L12.219 23.3164H10.7785L9.56448 25.2166L8.39297 23.3195H6.86841L8.79383 26.1527L6.70117 29.2649Z" fill="black"/>
</g>
<g id="g2488">
<path id="path2486" d="M19.9785 16.0569H21.4605L22.7919 13.9996L24.0984 16.0569H25.6635L23.5791 12.9498L25.4963 10.1094H24.0558L22.8376 12.0085L21.6651 10.1094H20.1415L22.067 12.9416L19.9785 16.0569Z" fill="black"/>
</g>
<g id="g2492">
<path id="path2490" d="M30.8761 3.32135L29.6621 5.22049L28.4896 3.32135H26.966L28.8915 6.15352L26.7988 9.26779H28.2808L29.6122 7.21056L30.9187 9.26779H32.4838L30.3995 6.16076L32.3166 3.32031L30.8761 3.32135Z" fill="black"/>
</g>
<g id="g2496">
<path id="path2494" d="M4.07731 29.9883L2.86325 31.8874L1.6918 29.9883H0.167192L2.09368 32.8205L0 35.9358H1.48201L2.81341 33.8785L4.11991 35.9358H5.68498L3.60063 32.8308L5.51779 29.9903L4.07731 29.9883Z" fill="black"/>
</g>
<g id="g2500">
<path id="path2498" d="M20.1035 29.3079H21.5886L22.92 27.2496L24.2265 29.3079H25.7916L23.7072 26.2009L25.6244 23.3594H24.185L22.9709 25.2585L21.7963 23.3594H20.2728L22.1983 26.1916L20.1035 29.3079Z" fill="black"/>
</g>
<g id="g2504">
<path id="path2502" d="M26.832 35.9993H28.3151L29.6454 33.941L30.9519 35.9993H32.5171L30.4327 32.8923L32.3498 30.0508H30.9104L29.6964 31.951L28.5238 30.0508H26.9992L28.9258 32.883L26.832 35.9993Z" fill="black"/>
</g>
</g>
</g>
</g>
</svg>
