<svg width="69" height="28" viewBox="0 0 69 28" fill="none" xmlns="http://www.w3.org/2000/svg">
<path id="Vector" d="M53.8936 4.27193H58.664C60.0928 4.27193 61.1775 4.58466 61.9181 5.21014C62.6587 5.83562 63.0294 6.75937 63.0303 7.98139C63.0523 8.69516 62.8702 9.4006 62.5048 10.0171C62.1547 10.5743 61.6399 11.0124 61.0298 11.2724C60.395 11.5531 59.6197 11.693 58.704 11.6922H53.8936V4.27193ZM53.8936 15.8411H58.988C60.3884 15.8411 61.5135 16.16 62.3635 16.7978C63.2134 17.4356 63.638 18.4198 63.6371 19.7506C63.6371 20.6016 63.4482 21.3196 63.0703 21.9047C62.6862 22.4948 62.1275 22.9542 61.47 23.2206C60.7836 23.5145 59.9549 23.6606 58.9841 23.6588H53.8895L53.8936 15.8411ZM59.7149 27.9275C61.4673 27.9275 62.997 27.6086 64.304 26.9709C65.5572 26.377 66.619 25.4519 67.3713 24.2983C68.1162 23.1427 68.5028 21.7977 68.4836 20.4283C68.4836 19.1519 68.2342 18.0553 67.7354 17.1386C67.269 16.2573 66.6054 15.4923 65.7949 14.9016C65.008 14.3342 64.1035 13.9459 63.1463 13.7647C64.0287 13.501 64.8461 13.0597 65.5469 12.4686C66.2716 11.8627 66.8545 11.1089 67.2553 10.2592C67.6862 9.3203 67.9003 8.29869 67.8821 7.26819C67.8821 5.85932 67.5451 4.60924 66.8712 3.51793C66.1744 2.40754 65.1722 1.51536 63.9812 0.94538C62.7276 0.320776 61.1979 0.00805014 59.3922 0.00717289H49.0818L49.0418 27.9315L59.7149 27.9275ZM39.3823 17.7597V13.97H28.1024L28.061 17.7597H39.3823ZM4.85573 4.27588H7.80712C9.26167 4.27588 10.5486 4.58861 11.668 5.21409C12.7873 5.83957 13.668 6.86334 14.3099 8.28536C14.9563 9.70827 15.2799 11.6031 15.2808 13.97C15.2808 15.7245 15.0923 17.2202 14.7153 18.4571C14.3384 19.6941 13.8191 20.6981 13.1576 21.4692C12.5288 22.2192 11.7143 22.7962 10.7931 23.1443C9.85003 23.4949 8.84949 23.6707 7.84176 23.6628H4.85039L4.85573 4.27588ZM8.29121 27.9315C9.92193 27.949 11.5389 27.6355 13.0416 27.0103C14.4784 26.4019 15.7623 25.4896 16.8025 24.3378C17.8694 23.1675 18.6914 21.7113 19.2684 19.9691C19.8454 18.2268 20.1352 16.2258 20.1379 13.966C20.1379 11.7053 19.8414 9.70389 19.2483 7.96166C18.6553 6.21944 17.8129 4.76364 16.7211 3.59426C15.6568 2.44301 14.3536 1.53148 12.9003 0.921703C11.3901 0.297953 9.76691 -0.0154683 8.12985 0.000587058H0.0399831L0 27.9249L8.29121 27.9315Z" fill="white"/>
</svg>
