<svg width="68" height="28" viewBox="0 0 68 28" fill="none" xmlns="http://www.w3.org/2000/svg">
<path id="Vector" d="M52.8427 4.33834H57.5201C58.921 4.33834 59.9846 4.65106 60.7107 5.27654C61.4369 5.90202 61.8004 6.82578 61.8013 8.04779C61.8228 8.76156 61.6443 9.46701 61.2861 10.0835C60.9428 10.6408 60.438 11.0789 59.8398 11.3388C59.2174 11.6195 58.4572 11.7594 57.5593 11.7586H52.8427V4.33834ZM52.8427 15.9075H57.8378C59.2109 15.9075 60.3141 16.2264 61.1475 16.8642C61.9809 17.502 62.3972 18.4862 62.3963 19.817C62.3963 20.668 62.2111 21.386 61.8406 21.9711C61.4639 22.5612 60.9161 23.0206 60.2714 23.287C59.5984 23.5809 58.7859 23.727 57.834 23.7252H52.8388L52.8427 15.9075ZM58.5505 27.9939C60.2688 27.9939 61.7686 27.675 63.0501 27.0373C64.2789 26.4434 65.32 25.5183 66.0577 24.3647C66.7881 23.2092 67.1671 21.8641 67.1482 20.4947C67.1482 19.2183 66.9037 18.1217 66.4147 17.205C65.9574 16.3237 65.3067 15.5587 64.512 14.968C63.7405 14.4006 62.8536 14.0123 61.9151 13.8311C62.7803 13.5674 63.5817 13.1261 64.2688 12.535C64.9794 11.9291 65.5509 11.1753 65.9439 10.3256C66.3664 9.38671 66.5763 8.3651 66.5585 7.3346C66.5585 5.92573 66.2281 4.67564 65.5673 3.58434C64.8841 2.47394 63.9014 1.58177 62.7337 1.01179C61.5045 0.387182 60.0046 0.0744564 58.2341 0.0735791H48.1248L48.0856 27.9979L58.5505 27.9939ZM38.6144 17.8261V14.0364H27.5544L27.5139 17.8261H38.6144ZM4.76105 4.34229H7.65489C9.08108 4.34229 10.3429 4.65501 11.4404 5.28049C12.538 5.90598 13.4015 6.92974 14.0309 8.35177C14.6646 9.77468 14.9819 11.6695 14.9828 14.0364C14.9828 15.7909 14.798 17.2866 14.4284 18.5235C14.0588 19.7605 13.5496 20.7645 12.9011 21.5356C12.2845 22.2856 11.4859 22.8626 10.5826 23.2107C9.65797 23.5613 8.67694 23.7371 7.68886 23.7292H4.75581L4.76105 4.34229ZM8.12954 27.9979C9.72847 28.0154 11.3139 27.7019 12.7873 27.0768C14.1961 26.4683 15.4549 25.556 16.4748 24.4042C17.5209 23.2339 18.3269 21.7777 18.8927 20.0355C19.4584 18.2933 19.7426 16.2922 19.7453 14.0324C19.7453 11.7717 19.4545 9.77029 18.873 8.02807C18.2915 6.28584 17.4656 4.83005 16.3951 3.66067C15.3515 2.50942 14.0738 1.59789 12.6487 0.988109C11.168 0.364359 9.57647 0.050938 7.97132 0.0669933H0.0392034L0 27.9913L8.12954 27.9979Z" fill="white"/>
</svg>
