<svg width="1448" height="319" viewBox="0 0 1448 319" fill="none" xmlns="http://www.w3.org/2000/svg">
<path d="M676.439 46.3679C677.074 46.3679 677.712 46.3679 678.355 46.3679C717.894 47.701 736.399 94.347 711.428 125.008L707.864 129.795H724.755C739.533 129.795 753.706 135.658 764.156 146.092C774.606 156.527 780.477 170.68 780.477 185.437V191.522C780.813 191.082 781.15 190.654 781.498 190.225L847.215 102.009H923.368L839.507 213.293H951.647C951.87 200.408 956.361 187.961 964.417 177.895C972.474 167.828 983.642 160.71 996.178 157.651H957.474L999.394 102.009H1120.66H1122.57C1127.94 102.175 1133.24 103.245 1138.26 105.174C1146.47 108.382 1153.61 113.858 1158.83 120.962C1160.54 123.276 1162.05 125.735 1163.33 128.312C1164.83 120.428 1168.3 113.049 1173.41 106.855L1177.03 101.986H1253.06L1232.16 129.807H1343.6C1344.61 129.807 1345.61 129.807 1346.6 129.888C1347.58 129.969 1348.43 130.004 1349.33 130.085C1363.64 131.521 1376.9 138.211 1386.55 148.857C1396.2 159.503 1401.55 173.348 1401.57 187.709V213.269C1401.57 228.026 1395.69 242.179 1385.24 252.614C1374.79 263.048 1360.62 268.911 1345.84 268.911H1158.7H1111.68C1111.05 268.911 1110.41 268.911 1109.77 268.911C1104.4 268.753 1099.1 267.687 1094.09 265.758C1085.26 262.291 1077.7 256.226 1072.41 248.37C1069.19 243.637 1066.81 238.381 1065.38 232.836C1061.48 244.424 1054.04 254.498 1044.11 261.636C1034.17 268.774 1022.24 272.616 1010 272.62C998.23 272.619 986.733 269.065 977.017 262.425C967.301 255.785 959.822 246.369 955.559 235.41V268.922H818.46C817.826 268.922 817.187 268.922 816.545 268.922C796.113 268.238 780.779 255.452 774.162 239.026C769.454 248.049 762.358 255.61 753.648 260.887C744.937 266.164 734.944 268.956 724.755 268.957H529.729H529.601L529.729 268.795V248.695C525.584 254.763 520.055 259.762 513.596 263.279C507.138 266.796 499.935 268.73 492.581 268.922C491.939 268.922 491.3 268.922 490.665 268.922H482.911H343.606C334.435 268.921 325.406 266.66 317.32 262.338C309.233 258.017 302.341 251.77 297.253 244.151V268.922H102.226C87.448 268.922 73.2752 263.06 62.8253 252.626C52.3755 242.191 46.5046 228.038 46.5046 213.281V187.721C46.5159 173.36 51.8656 159.515 61.5171 148.869C71.1686 138.222 84.4345 131.533 98.7437 130.097C99.6492 130.016 100.555 129.946 101.472 129.9C102.389 129.853 103.457 129.818 104.467 129.818H223.758L202.862 101.998H278.958L282.591 106.866C288.014 113.465 291.576 121.387 292.911 129.818H343.618V213.281H469.654L385.792 101.998H461.922L527.651 190.213C533.101 196.841 536.673 204.806 537.994 213.281H724.836V185.46H529.601V129.818H631.757L652.735 101.998H529.601V46.356H676.439M1067.32 202.778C1069.16 198.251 1071.67 194.024 1074.77 190.236L1099.22 157.651H1023.9C1034.68 160.281 1044.49 165.922 1052.18 173.913C1059.86 181.905 1065.12 191.916 1067.32 202.778ZM1133.22 213.269H1258.59H1345.92V185.53H1214.49C1205.94 185.518 1197.5 183.541 1189.83 179.749C1182.17 175.958 1175.48 170.455 1170.29 163.667C1169.37 162.218 1168.52 160.711 1167.75 159.181C1166.25 167.068 1162.79 174.453 1157.69 180.661L1133.24 213.246M102.238 213.246H287.896V159.923C287.234 161.198 286.526 162.438 285.76 163.655C280.567 170.443 273.878 175.946 266.212 179.737C258.546 183.529 250.109 185.507 241.554 185.518H102.25V213.257M676.532 -0.0351562H529.601C517.285 -0.0351562 505.475 4.85013 496.766 13.5458C488.058 22.2415 483.166 34.0353 483.166 46.3328V60.7883C476.575 57.3817 469.262 55.6045 461.841 55.6064H385.711C377.082 55.6067 368.623 58.0085 361.284 62.5418C353.945 67.0751 348.017 73.5608 344.164 81.2712C343.8 81.9899 343.463 82.7085 343.153 83.4272H322.931C321.755 81.7425 320.532 80.0967 319.263 78.4893L316.129 74.2928C311.807 68.4944 306.189 63.7848 299.721 60.5403C293.253 57.2959 286.114 55.6063 278.876 55.6064H202.781C194.156 55.6067 185.701 58.006 178.365 62.535C171.028 67.0639 165.101 73.5437 161.245 81.248C160.885 81.9667 160.548 82.6969 160.223 83.4272H104.421C102.644 83.4272 100.845 83.4273 99.0572 83.5664C97.4784 83.6476 95.8767 83.7633 94.1586 83.9371C68.4693 86.4412 44.6267 98.3845 27.2573 117.45C9.70032 136.642 -0.0237765 161.703 4.3659e-05 187.697V213.257C0.0307688 240.303 10.804 266.231 29.9554 285.355C49.1068 304.479 75.0724 315.236 102.157 315.267H297.183C303.573 315.28 309.897 313.974 315.757 311.43C324.823 313.982 334.198 315.273 343.618 315.267H482.922C483.514 315.267 484.083 315.267 484.687 315.267H490.677C491.838 315.267 492.999 315.267 494.16 315.209C500.796 314.989 507.391 314.076 513.836 312.485L514.788 312.821C519.62 314.471 524.692 315.309 529.798 315.302H724.825C741.46 315.323 757.848 311.279 772.559 303.524C785.582 310.762 800.151 314.781 815.047 315.244C816.208 315.244 817.369 315.302 818.53 315.302H955.629C961.437 315.308 967.195 314.222 972.601 312.102C984.559 316.696 997.261 319.053 1010.07 319.058C1029.61 319.074 1048.77 313.629 1065.37 303.339C1069.22 305.51 1073.22 307.401 1077.35 308.996C1087.22 312.821 1097.68 314.945 1108.27 315.279C1109.43 315.279 1110.59 315.337 1111.75 315.337H1157.4H1158.77H1345.91C1373 315.306 1398.96 304.549 1418.11 285.425C1437.27 266.301 1448.04 240.372 1448.07 213.327V187.767C1448.09 161.773 1438.37 136.712 1420.81 117.519C1403.44 98.4552 1379.6 86.509 1353.91 83.9955C1352.19 83.8332 1350.59 83.7172 1349 83.636C1347.24 83.5433 1345.43 83.4968 1343.65 83.4968H1295.73C1295.42 82.7665 1295.07 82.0363 1294.71 81.3176C1290.85 73.6133 1284.92 67.1336 1277.59 62.6046C1270.25 58.0756 1261.8 55.6763 1253.17 55.676H1177.08C1169.07 55.6785 1161.2 57.7426 1154.23 61.669C1144.61 58.0639 1134.47 56.0593 1124.2 55.7343C1123.04 55.7343 1121.88 55.676 1120.72 55.676H999.452C992.248 55.6693 985.141 57.3365 978.694 60.5454C972.246 63.7544 966.635 68.4174 962.304 74.1655L961.375 75.3943C957.091 69.3078 951.404 64.3398 944.793 60.91C938.182 57.4801 930.841 55.689 923.391 55.6879H847.261C840.023 55.6878 832.885 57.3774 826.417 60.6219C819.949 63.8663 814.33 68.5753 810.009 74.3738L787.303 104.849C781.695 100.501 775.649 96.7482 769.263 93.6517C769.289 79.9288 766.359 66.3605 760.672 53.8676C753.86 38.8423 743.141 25.9138 729.63 16.4257C715.013 6.28365 697.76 0.601355 679.969 0.0695565C678.808 0.0695565 677.647 0.011257 676.486 0.011257L676.532 -0.0351562Z" fill="black"/>
</svg>
