<svg width="628" height="139" viewBox="0 0 628 139" fill="none" xmlns="http://www.w3.org/2000/svg">
<path d="M293.012 20.1137C293.287 20.1137 293.564 20.1137 293.842 20.1137C310.969 20.692 318.985 40.9267 308.168 54.2271L306.624 56.3039H313.941C320.343 56.3039 326.482 58.847 331.008 63.3735C335.535 67.9001 338.078 74.0393 338.078 80.4408V83.0808C338.224 82.8897 338.37 82.7038 338.52 82.5178L366.987 44.2506H399.974L363.648 92.5245H412.223C412.32 86.9355 414.266 81.5358 417.755 77.1691C421.245 72.8023 426.083 69.7145 431.513 68.3876H414.748L432.906 44.2506H485.434H486.264C488.589 44.3226 490.886 44.7868 493.057 45.6234C496.617 47.0148 499.707 49.3903 501.968 52.4723C502.71 53.4758 503.363 54.5425 503.919 55.6603C504.57 52.2406 506.071 49.0396 508.284 46.3524L509.852 44.2406H542.784L533.733 56.309H582.007C582.444 56.309 582.877 56.3089 583.304 56.3441C583.732 56.3793 584.099 56.3944 584.486 56.4296C590.684 57.0525 596.43 59.9544 600.611 64.5727C604.792 69.191 607.109 75.1968 607.114 81.4264V92.5144C607.114 98.9159 604.571 105.055 600.045 109.582C595.518 114.108 589.379 116.651 582.977 116.651H501.912H481.547C481.272 116.651 480.995 116.651 480.717 116.651C478.391 116.583 476.094 116.12 473.924 115.283C470.102 113.779 466.827 111.149 464.535 107.741C463.138 105.688 462.107 103.408 461.488 101.003C459.802 106.029 456.579 110.399 452.275 113.495C447.971 116.592 442.804 118.259 437.502 118.26C432.402 118.26 427.422 116.718 423.213 113.838C419.005 110.957 415.765 106.873 413.918 102.119V116.656H354.531C354.256 116.656 353.98 116.656 353.702 116.656C344.851 116.36 338.209 110.813 335.343 103.688C333.303 107.602 330.23 110.882 326.456 113.171C322.683 115.46 318.354 116.671 313.941 116.671H229.462H229.406L229.462 116.601V107.882C227.667 110.514 225.271 112.683 222.474 114.208C219.676 115.734 216.556 116.573 213.371 116.656C213.092 116.656 212.816 116.656 212.541 116.656H209.182H148.839C144.867 116.656 140.955 115.675 137.453 113.8C133.95 111.926 130.964 109.216 128.76 105.91V116.656H44.2812C37.8797 116.656 31.7405 114.113 27.214 109.587C22.6874 105.06 20.1443 98.9208 20.1443 92.5193V81.4315C20.1492 75.202 22.4666 69.1962 26.6473 64.5779C30.828 59.9596 36.5744 57.0577 42.7727 56.4347C43.1649 56.3995 43.5572 56.3694 43.9544 56.3493C44.3517 56.3292 44.8144 56.3139 45.2518 56.3139H96.9248L87.8735 44.2455H120.836L122.41 46.3576C124.759 49.2198 126.302 52.6566 126.88 56.3139H148.844V92.5193H203.439L167.113 44.2455H200.09L228.562 82.5126C230.923 85.3878 232.47 88.8432 233.042 92.5193H313.976V80.4509H229.406V56.3139H273.657L282.744 44.2455H229.406V20.1085H293.012M462.328 87.9634C463.128 85.9996 464.216 84.166 465.556 82.5227L476.146 68.3876H443.521C448.191 69.5286 452.439 71.9753 455.77 75.442C459.1 78.9086 461.375 83.2517 462.328 87.9634ZM490.875 92.5144H545.183H583.012V80.4811H526.079C522.374 80.4762 518.719 79.6183 515.398 77.9737C512.078 76.329 509.181 73.9419 506.931 70.9973C506.534 70.3688 506.166 69.715 505.835 69.0512C505.183 72.4727 503.684 75.6763 501.475 78.3692L490.885 92.5043M44.2864 92.5043H124.707V69.3731C124.421 69.9263 124.114 70.4642 123.782 70.9922C121.533 73.9368 118.635 76.3239 115.315 77.9685C111.994 79.6131 108.339 80.4713 104.634 80.4762H44.2913V92.5093M293.053 -0.015625H229.406C224.072 -0.015625 218.956 2.10358 215.184 5.87571C211.411 9.64783 209.292 14.7639 209.292 20.0985V26.3692C206.437 24.8914 203.27 24.1205 200.055 24.1213H167.078C163.34 24.1214 159.676 25.1633 156.497 27.1298C153.318 29.0963 150.75 31.9098 149.081 35.2545C148.923 35.5663 148.777 35.878 148.643 36.1898H139.884C139.374 35.459 138.844 34.745 138.295 34.0477L136.937 32.2273C135.065 29.712 132.631 27.669 129.83 26.2616C127.028 24.8542 123.936 24.1213 120.8 24.1213H87.8384C84.1023 24.1214 80.4399 25.1622 77.262 27.1269C74.0842 29.0915 71.5165 31.9024 69.8464 35.2445C69.6905 35.5562 69.5445 35.873 69.4037 36.1898H45.2317C44.4623 36.1898 43.6829 36.1898 42.9085 36.2502C42.2246 36.2854 41.5308 36.3356 40.7866 36.411C29.6588 37.4972 19.3309 42.6782 11.807 50.9485C4.20187 59.274 -0.0102992 70.1453 1.89117e-05 81.4215V92.5093C0.0133281 104.241 4.67993 115.489 12.9757 123.785C21.2715 132.081 32.519 136.747 44.251 136.76H128.73C131.498 136.766 134.237 136.199 136.776 135.096C140.703 136.203 144.764 136.763 148.844 136.76H209.187C209.443 136.76 209.69 136.76 209.951 136.76H212.546C213.049 136.76 213.552 136.76 214.054 136.735C216.929 136.64 219.786 136.244 222.578 135.553L222.99 135.699C225.083 136.415 227.28 136.779 229.492 136.776H313.971C321.177 136.784 328.276 135.03 334.648 131.666C340.289 134.806 346.6 136.549 353.053 136.75C353.556 136.75 354.059 136.776 354.561 136.776H413.948C416.464 136.778 418.958 136.307 421.3 135.388C426.48 137.38 431.982 138.403 437.532 138.405C445.996 138.412 454.292 136.05 461.483 131.586C463.151 132.528 464.886 133.348 466.672 134.04C470.952 135.699 475.481 136.621 480.068 136.765C480.571 136.765 481.074 136.79 481.577 136.79H501.349H501.942H583.007C594.739 136.777 605.987 132.111 614.283 123.815C622.579 115.519 627.245 104.271 627.258 92.5395V81.4517C627.269 70.1755 623.056 59.3042 615.451 50.9787C607.926 42.7088 597.6 37.5267 586.472 36.4363C585.728 36.3659 585.034 36.3156 584.345 36.2804C583.581 36.2401 582.796 36.22 582.027 36.22H561.269C561.133 35.9032 560.982 35.5864 560.826 35.2747C559.156 31.9326 556.589 29.1217 553.411 27.1571C550.233 25.1924 546.571 24.1516 542.834 24.1515H509.872C506.405 24.1526 502.997 25.048 499.976 26.7512C495.81 25.1873 491.415 24.3178 486.968 24.1768C486.465 24.1768 485.962 24.1515 485.459 24.1515H432.931C429.811 24.1486 426.732 24.8718 423.939 26.2638C421.147 27.6559 418.716 29.6786 416.84 32.1721L416.438 32.7052C414.582 30.0649 412.118 27.9098 409.254 26.4219C406.391 24.9341 403.211 24.1572 399.984 24.1567H367.007C363.872 24.1566 360.78 24.8896 357.978 26.297C355.176 27.7044 352.742 29.7471 350.871 32.2625L341.035 45.4825C338.606 43.5961 335.987 41.9683 333.22 40.6251C333.232 34.6722 331.963 28.7863 329.499 23.367C326.548 16.8492 321.905 11.2409 316.053 7.12498C309.721 2.72543 302.248 0.260489 294.541 0.0297987C294.038 0.0297987 293.535 0.00450875 293.032 0.00450875L293.053 -0.015625Z" fill="black"/>
</svg>
